<svg width="24" height="24" viewBox="0 0 24 24" fill="none" xmlns="http://www.w3.org/2000/svg">
<path d="M15.35 7.5C15.35 8.825 14.975 10.0625 14.2875 11.1125C14.2375 11.2125 14.175 11.3 14.1125 11.3875C12.9125 13.1125 10.9 14.25 8.64999 14.25C4.94999 14.25 1.9375 11.225 1.9375 7.5C1.9375 3.775 4.94999 0.75 8.64999 0.75C10.9125 0.75 12.925 1.8875 14.1125 3.6125C14.175 3.7 14.2375 3.7875 14.2875 3.9C14.975 4.95 15.35 6.1875 15.35 7.5125V7.5Z" stroke="#000040" stroke-width="1.5" stroke-linecap="round" stroke-linejoin="round"/>
<path d="M22.6251 7.50039C22.6251 10.2504 20.4125 12.4754 17.6875 12.4754C16.375 12.4754 15.1875 11.9629 14.3 11.1129C14.9875 10.0629 15.3626 8.82539 15.3626 7.50039C15.3626 6.17539 14.9875 4.93789 14.3 3.88789C15.1875 3.03789 16.375 2.52539 17.6875 2.52539C20.4125 2.52539 22.6251 4.75039 22.6251 7.50039Z" stroke="#000040" stroke-width="1.5" stroke-linecap="round" stroke-linejoin="round"/>
<path d="M1.375 23.2508C4.6375 17.7258 12.575 17.7008 15.875 23.1883L15.9125 23.2508" stroke="#000040" stroke-width="1.5" stroke-linecap="round" stroke-linejoin="round"/>
<path d="M20.9501 22.1254C20.4251 20.3004 19.1751 18.8754 17.6001 18.2629L19.0876 16.7754" stroke="#000040" stroke-width="1.5" stroke-linecap="round" stroke-linejoin="round"/>
</svg>
