<svg width="22" height="26" viewBox="0 0 22 26" fill="none" xmlns="http://www.w3.org/2000/svg">
<path fill-rule="evenodd" clip-rule="evenodd" d="M8.76813 4.23117L3.41063 9.58867C2.92188 10.0774 2.13188 10.0774 1.64312 9.58867C1.15437 9.09992 1.15437 8.30992 1.64312 7.82117L8.25938 1.20492C9.23313 0.231172 10.8206 0.231172 11.7944 1.20492L18.4106 7.82117C18.8994 8.30992 18.8994 9.09992 18.4106 9.58867C18.1669 9.83242 17.8469 9.95492 17.5269 9.95492C17.2069 9.95492 16.8869 9.83242 16.6431 9.58867L11.2681 4.21367L11.2769 17.9899C11.2769 18.6799 10.7169 19.2412 10.0269 19.2412C9.33688 19.2412 8.77688 18.6812 8.77688 17.9924L8.76813 4.23117ZM1.25 22.9993H20C20.6912 22.9993 21.25 23.558 21.25 24.2493C21.25 24.9405 20.6912 25.4993 20 25.4993H1.25C0.55875 25.4993 0 24.9405 0 24.2493C0 23.558 0.55875 22.9993 1.25 22.9993Z" fill="#EA5455"/>
</svg>
