<svg width="22" height="26" viewBox="0 0 22 26" fill="none" xmlns="http://www.w3.org/2000/svg">
<path fill-rule="evenodd" clip-rule="evenodd" d="M10.0268 19.2402C9.38675 19.2402 8.74675 18.9964 8.25925 18.5089L1.643 11.8927C1.15425 11.4039 1.15425 10.6139 1.643 10.1252C2.13175 9.63641 2.92175 9.63641 3.4105 10.1252L8.7855 15.5002L8.77675 1.72391C8.77675 1.03391 9.3355 0.472656 10.0255 0.472656H10.0268C10.7168 0.472656 11.2768 1.03266 11.2768 1.72141L11.2855 15.4827L16.643 10.1252C17.1318 9.63641 17.9218 9.63641 18.4105 10.1252C18.8993 10.6139 18.8993 11.4039 18.4105 11.8927L11.7943 18.5089C11.3068 18.9964 10.6668 19.2402 10.0268 19.2402ZM1.25 22.9998H20C20.6912 22.9998 21.25 23.5585 21.25 24.2498C21.25 24.941 20.6912 25.4998 20 25.4998H1.25C0.55875 25.4998 0 24.941 0 24.2498C0 23.5585 0.55875 22.9998 1.25 22.9998Z" fill="#28C76F"/>
</svg>
