<svg width="39" height="40" viewBox="0 0 39 40" fill="none" xmlns="http://www.w3.org/2000/svg">
<path d="M23.7417 37.3421C23.8751 37.3948 23.9952 37.4212 24.1022 37.4212C24.2091 37.4212 24.3292 37.3948 24.4626 37.3421L36.5792 33.6087C36.5376 32.9754 36.348 32.5191 36.0105 32.24C35.673 31.9608 35.291 31.8212 34.8647 31.8212H24.9792C24.0987 31.8212 23.3001 31.7865 22.5834 31.7171C21.8681 31.6476 21.1355 31.4816 20.3855 31.2191L16.8147 30.0691C16.5299 29.9761 16.3251 29.7893 16.2001 29.5087C16.0751 29.2282 16.0598 28.9504 16.1542 28.6754C16.2473 28.4004 16.4258 28.199 16.6897 28.0712C16.9536 27.9434 17.2292 27.9275 17.5167 28.0233L20.7459 29.1921C21.4154 29.4198 22.157 29.5657 22.9709 29.6296C23.7848 29.6934 24.7911 29.7296 25.9897 29.7379H26.5313C26.5313 29.0893 26.4112 28.5643 26.1709 28.1629C25.932 27.7629 25.5897 27.4837 25.1438 27.3254L13.1563 22.9275C13.0772 22.8997 13.0042 22.8789 12.9376 22.865C12.8709 22.8525 12.7973 22.8462 12.7167 22.8462H8.34175V32.8629L23.7417 37.3421ZM23.2084 39.4004L8.34175 35.0504C8.14452 35.8726 7.72439 36.5282 7.08133 37.0171C6.43966 37.5059 5.73897 37.7504 4.97925 37.7504H3.37508C2.45008 37.7504 1.65841 37.4205 1.00008 36.7608C0.340359 36.1025 0.010498 35.3108 0.010498 34.3858V24.1296C0.010498 23.2032 0.339665 22.4108 0.997998 21.7525C1.65772 21.0928 2.45008 20.7629 3.37508 20.7629H12.673C12.8674 20.7629 13.0667 20.7851 13.2709 20.8296C13.4765 20.874 13.6674 20.9254 13.8438 20.9837L25.8855 25.3941C26.6299 25.6775 27.2709 26.1865 27.8084 26.9212C28.3473 27.6559 28.6167 28.5948 28.6167 29.7379H34.8667C36.1209 29.7379 37.082 30.1303 37.7501 30.915C38.4181 31.7011 38.7522 32.6976 38.7522 33.9046C38.7522 34.3212 38.6397 34.6733 38.4147 34.9608C38.1883 35.2469 37.8584 35.4622 37.4251 35.6066L25.1667 39.39C24.8654 39.4747 24.5459 39.5233 24.2084 39.5358C23.8723 39.5497 23.5397 39.5046 23.2105 39.4004M2.09175 34.3858C2.09175 34.7594 2.21189 35.0664 2.45216 35.3066C2.69244 35.5469 2.99939 35.6671 3.373 35.6671H4.97716C5.35078 35.6671 5.65772 35.5671 5.898 35.3671C6.13828 35.1671 6.25841 34.84 6.25841 34.3858V22.8462H3.373C2.99939 22.8462 2.69244 22.9664 2.45216 23.2066C2.21189 23.4469 2.09175 23.7546 2.09175 24.1296V34.3858ZM23.1167 0.306641C23.4584 0.306641 23.7959 0.360807 24.1292 0.469141C24.4626 0.577474 24.7792 0.730252 25.0792 0.927474L35.2563 8.17539C35.7049 8.47678 36.0522 8.87609 36.298 9.37331C36.5438 9.87053 36.6667 10.3851 36.6667 10.9171V23.7254C36.6667 24.0212 36.5667 24.2684 36.3667 24.4671C36.1667 24.6671 35.9188 24.7671 35.623 24.7671C35.3286 24.7671 35.0813 24.6671 34.8813 24.4671C34.6827 24.2698 34.5834 24.024 34.5834 23.7296V10.8671C34.5834 10.6532 34.5369 10.4532 34.4438 10.2671C34.3494 10.0796 34.2091 9.91914 34.023 9.78581L23.8459 2.69414C23.632 2.53442 23.3917 2.45456 23.1251 2.45456C22.8584 2.45456 22.6181 2.53442 22.4042 2.69414L12.2272 9.78581C12.0411 9.91914 11.9008 10.0789 11.8063 10.265C11.7133 10.4539 11.6667 10.6559 11.6667 10.8712V14.7566C11.6667 15.0511 11.5667 15.2983 11.3667 15.4983C11.1667 15.6983 10.9188 15.7983 10.623 15.7983C10.3286 15.7983 10.0813 15.6983 9.88133 15.4983C9.68272 15.2969 9.58342 15.049 9.58342 14.7546V10.9212C9.58342 10.3865 9.70633 9.87053 9.95217 9.37331C10.198 8.87609 10.5452 8.47678 10.9938 8.17539L21.1709 0.927474C21.4723 0.730252 21.7869 0.577474 22.1147 0.469141C22.4411 0.360807 22.7751 0.306641 23.1167 0.306641ZM21.0334 9.48164C21.2584 9.48164 21.4549 9.39761 21.623 9.22956C21.7911 9.0615 21.8751 8.86497 21.8751 8.63997C21.8751 8.41497 21.7911 8.21845 21.623 8.05039C21.4549 7.88233 21.2584 7.79831 21.0334 7.79831C20.8098 7.79831 20.614 7.88233 20.4459 8.05039C20.2765 8.21845 20.1917 8.41497 20.1917 8.63997C20.1917 8.86358 20.2765 9.06011 20.4459 9.22956C20.6126 9.39622 20.8084 9.47956 21.0334 9.47956M25.2001 9.47956C25.4251 9.47956 25.6216 9.39622 25.7897 9.22956C25.9577 9.06289 26.0417 8.86636 26.0417 8.63997C26.0417 8.41497 25.9577 8.21845 25.7897 8.05039C25.6216 7.88233 25.4251 7.79831 25.2001 7.79831C24.9765 7.79831 24.7806 7.88233 24.6126 8.05039C24.4431 8.21845 24.3584 8.41497 24.3584 8.63997C24.3584 8.86358 24.4431 9.06011 24.6126 9.22956C24.7792 9.39622 24.9751 9.47956 25.2001 9.47956ZM21.0334 13.6462C21.2584 13.6462 21.4549 13.5629 21.623 13.3962C21.7911 13.2296 21.8751 13.033 21.8751 12.8066C21.8751 12.5816 21.7911 12.3851 21.623 12.2171C21.4549 12.0504 21.2584 11.9671 21.0334 11.9671C20.8098 11.9671 20.614 12.0504 20.4459 12.2171C20.2765 12.3851 20.1917 12.5816 20.1917 12.8066C20.1917 13.0303 20.2765 13.2268 20.4459 13.3962C20.6126 13.5629 20.8084 13.6462 21.0334 13.6462ZM25.2001 13.6462C25.4251 13.6462 25.6216 13.5629 25.7897 13.3962C25.9577 13.2296 26.0417 13.033 26.0417 12.8066C26.0417 12.5816 25.9577 12.3851 25.7897 12.2171C25.6216 12.0504 25.4251 11.9671 25.2001 11.9671C24.9765 11.9671 24.7806 12.0504 24.6126 12.2171C24.4431 12.3851 24.3584 12.5816 24.3584 12.8066C24.3584 13.0303 24.4431 13.2268 24.6126 13.3962C24.7792 13.5629 24.9751 13.6462 25.2001 13.6462Z" fill="#000040"/>
</svg>
