<svg width="30" height="30" viewBox="0 0 30 30" fill="none" xmlns="http://www.w3.org/2000/svg">
<path d="M15 18.75C15.9946 18.75 16.9484 18.3549 17.6516 17.6516C18.3549 16.9484 18.75 15.9946 18.75 15C18.75 14.0054 18.3549 13.0516 17.6516 12.3483C16.9484 11.6451 15.9946 11.25 15 11.25C14.0054 11.25 13.0516 11.6451 12.3483 12.3483C11.6451 13.0516 11.25 14.0054 11.25 15C11.25 15.9946 11.6451 16.9484 12.3483 17.6516C13.0516 18.3549 14.0054 18.75 15 18.75Z" fill="#000040"/>
<path d="M0 7.5C0 7.00272 0.197544 6.52581 0.549175 6.17417C0.900806 5.82254 1.37772 5.625 1.875 5.625H28.125C28.6223 5.625 29.0992 5.82254 29.4508 6.17417C29.8025 6.52581 30 7.00272 30 7.5V22.5C30 22.9973 29.8025 23.4742 29.4508 23.8258C29.0992 24.1775 28.6223 24.375 28.125 24.375H1.875C1.37772 24.375 0.900806 24.1775 0.549175 23.8258C0.197544 23.4742 0 22.9973 0 22.5V7.5ZM5.625 7.5C5.625 8.49456 5.22991 9.44839 4.52665 10.1517C3.82339 10.8549 2.86956 11.25 1.875 11.25V18.75C2.86956 18.75 3.82339 19.1451 4.52665 19.8484C5.22991 20.5516 5.625 21.5054 5.625 22.5H24.375C24.375 21.5054 24.7701 20.5516 25.4734 19.8484C26.1766 19.1451 27.1304 18.75 28.125 18.75V11.25C27.1304 11.25 26.1766 10.8549 25.4734 10.1517C24.7701 9.44839 24.375 8.49456 24.375 7.5H5.625Z" fill="#000040"/>
</svg>
