<svg width="30" height="20" viewBox="0 0 30 20" fill="none" xmlns="http://www.w3.org/2000/svg">
<path d="M0 2.5C0 2.00272 0.197544 1.52581 0.549175 1.17417C0.900806 0.822544 1.37772 0.625 1.875 0.625H28.125C28.6223 0.625 29.0992 0.822544 29.4508 1.17417C29.8025 1.52581 30 2.00272 30 2.5V17.5C30 17.9973 29.8025 18.4742 29.4508 18.8258C29.0992 19.1775 28.6223 19.375 28.125 19.375H1.875C1.37772 19.375 0.900806 19.1775 0.549175 18.8258C0.197544 18.4742 0 17.9973 0 17.5V2.5ZM5.625 2.5C5.625 3.49456 5.22991 4.44839 4.52665 5.15165C3.82339 5.85491 2.86956 6.25 1.875 6.25V13.75C2.86956 13.75 3.82339 14.1451 4.52665 14.8484C5.22991 15.5516 5.625 16.5054 5.625 17.5H24.375C24.375 16.5054 24.7701 15.5516 25.4734 14.8484C26.1766 14.1451 27.1304 13.75 28.125 13.75V6.25C27.1304 6.25 26.1766 5.85491 25.4734 5.15165C24.7701 4.44839 24.375 3.49456 24.375 2.5H5.625Z" fill="#000040"/>
</svg>
