<svg width="50" height="50" viewBox="0 0 50 50" fill="none" xmlns="http://www.w3.org/2000/svg">
<rect width="50" height="50" rx="25" fill="#FDF6ED"/>
<path d="M12.8125 29.6875L37.1875 29.6875C37.7053 29.6875 38.125 29.2678 38.125 28.75V15.625C38.125 15.1072 37.7053 14.6875 37.1875 14.6875L12.8125 14.6875C12.2947 14.6875 11.875 15.1072 11.875 15.625V28.75C11.875 29.2678 12.2947 29.6875 12.8125 29.6875Z" stroke="#FFAF70" stroke-width="1.5" stroke-linejoin="round"/>
<path d="M13.75 32.5H36.25M15.625 35.3125H34.375" stroke="#FFAF70" stroke-width="1.5" stroke-linecap="round" stroke-linejoin="round"/>
<path d="M25 26.875C27.5888 26.875 29.6875 24.7763 29.6875 22.1875C29.6875 19.5987 27.5888 17.5 25 17.5C22.4112 17.5 20.3125 19.5987 20.3125 22.1875C20.3125 24.7763 22.4112 26.875 25 26.875Z" stroke="#FFAF70" stroke-width="1.5" stroke-linecap="round" stroke-linejoin="round"/>
<path d="M38.125 19.375C36.8818 19.375 35.6895 18.8811 34.8104 18.0021C33.9314 17.123 33.4375 15.9307 33.4375 14.6875M11.875 19.375C12.4906 19.375 13.1001 19.2538 13.6688 19.0182C14.2375 18.7826 14.7543 18.4373 15.1896 18.0021C15.6248 17.5668 15.9701 17.05 16.2057 16.4813C16.4413 15.9126 16.5625 15.3031 16.5625 14.6875M38.125 25C36.8818 25 35.6895 25.4939 34.8104 26.3729C33.9314 27.252 33.4375 28.4443 33.4375 29.6875M11.875 25C12.4906 25 13.1001 25.1212 13.6688 25.3568C14.2375 25.5924 14.7543 25.9377 15.1896 26.3729C15.6248 26.8082 15.9701 27.325 16.2057 27.8937C16.4413 28.4624 16.5625 29.0719 16.5625 29.6875" stroke="#FFAF70" stroke-width="1.5" stroke-linecap="round" stroke-linejoin="round"/>
</svg>
