<svg width="30" height="30" viewBox="0 0 30 30" fill="none" xmlns="http://www.w3.org/2000/svg">
<path d="M9.68557 20.3566L20.3999 9.6423M1.07129 23.5709C1.07129 24.1384 1.29646 24.6828 1.6974 25.0846C2.09834 25.4863 2.64228 25.7126 3.20986 25.7137H26.7899C27.3574 25.7126 27.9014 25.4863 28.3023 25.0846C28.7033 24.6828 28.9284 24.1384 28.9284 23.5709V19.2123C28.0032 18.9614 27.1863 18.4129 26.6039 17.6515C26.0214 16.8901 25.7058 15.9581 25.7058 14.9994C25.7058 14.0408 26.0214 13.1088 26.6039 12.3474C27.1863 11.586 28.0032 11.0375 28.9284 10.7866V6.42801C28.9284 5.86043 28.7033 5.31604 28.3023 4.9143C27.9014 4.51256 27.3574 4.28629 26.7899 4.28516H3.20986C2.64228 4.28629 2.09834 4.51256 1.6974 4.9143C1.29646 5.31604 1.07129 5.86043 1.07129 6.42801V10.778C2.0039 11.0233 2.82903 11.5705 3.41784 12.3342C4.00665 13.0979 4.32599 14.0351 4.32599 14.9994C4.32599 15.9638 4.00665 16.901 3.41784 17.6647C2.82903 18.4284 2.0039 18.9756 1.07129 19.2209V23.5709Z" stroke="#000040" stroke-width="1.5" stroke-linecap="round" stroke-linejoin="round"/>
<path d="M10.757 11.7835C11.0411 11.7835 11.3137 11.6706 11.5146 11.4697C11.7155 11.2687 11.8284 10.9962 11.8284 10.7121C11.8284 10.4279 11.7155 10.1554 11.5146 9.95444C11.3137 9.75351 11.0411 9.64062 10.757 9.64062C10.4728 9.64062 10.2003 9.75351 9.99936 9.95444C9.79843 10.1554 9.68555 10.4279 9.68555 10.7121C9.68555 10.9962 9.79843 11.2687 9.99936 11.4697C10.2003 11.6706 10.4728 11.7835 10.757 11.7835ZM19.3284 20.3549C19.6126 20.3549 19.8851 20.242 20.086 20.0411C20.2869 19.8402 20.3998 19.5676 20.3998 19.2835C20.3998 18.9993 20.2869 18.7268 20.086 18.5259C19.8851 18.3249 19.6126 18.2121 19.3284 18.2121C19.0442 18.2121 18.7717 18.3249 18.5708 18.5259C18.3699 18.7268 18.257 18.9993 18.257 19.2835C18.257 19.5676 18.3699 19.8402 18.5708 20.0411C18.7717 20.242 19.0442 20.3549 19.3284 20.3549Z" stroke="#000040" stroke-width="1.5" stroke-linecap="round" stroke-linejoin="round"/>
</svg>
