<svg width="30" height="30" viewBox="0 0 30 30" fill="none" xmlns="http://www.w3.org/2000/svg">
<path d="M4.375 11.023C4.375 9.99792 4.375 9.48538 4.57766 9.09525C4.74843 8.76649 5.01649 8.49843 5.34525 8.32766C5.73538 8.125 6.24792 8.125 7.273 8.125H22.727C23.7521 8.125 24.2646 8.125 24.6548 8.32766C24.9835 8.49843 25.2516 8.76649 25.4223 9.09525C25.625 9.48538 25.625 9.99792 25.625 11.023V20.227C25.625 21.2521 25.625 21.7646 25.4223 22.1548C25.2516 22.4835 24.9835 22.7516 24.6548 22.9223C24.2646 23.125 23.7521 23.125 22.727 23.125H7.273C6.24792 23.125 5.73538 23.125 5.34525 22.9223C5.01649 22.7516 4.74843 22.4835 4.57766 22.1548C4.375 21.7646 4.375 21.2521 4.375 20.227V11.023Z" stroke="#000040" stroke-width="1.5"/>
<path d="M4.375 13.125L25.625 13.125" stroke="#000040" stroke-width="1.5" stroke-linecap="round"/>
<circle cx="8.125" cy="19.375" r="0.625" fill="#000040"/>
</svg>
