<svg width="28" height="18" viewBox="0 0 28 18" fill="none" xmlns="http://www.w3.org/2000/svg">
<path d="M27.125 6.375C25.8818 6.375 24.6895 5.88114 23.8104 5.00206C22.9314 4.12299 22.4375 2.9307 22.4375 1.6875M0.875 6.375C1.49057 6.375 2.10011 6.25375 2.66883 6.01819C3.23754 5.78262 3.75429 5.43734 4.18956 5.00206C4.62484 4.56679 4.97012 4.05004 5.20569 3.48133C5.44125 2.91262 5.5625 2.30307 5.5625 1.6875M27.125 12C25.8818 12 24.6895 12.4939 23.8104 13.3729C22.9314 14.252 22.4375 15.4443 22.4375 16.6875M0.875 12C1.49057 12 2.10011 12.1212 2.66883 12.3568C3.23754 12.5924 3.75429 12.9377 4.18956 13.3729C4.62484 13.8082 4.97012 14.325 5.20569 14.8937C5.44125 15.4624 5.5625 16.0719 5.5625 16.6875" stroke="#FFAF70" stroke-width="1.5" stroke-linecap="round" stroke-linejoin="round"/>
</svg>
