<svg width="30" height="30" viewBox="0 0 30 30" fill="none" xmlns="http://www.w3.org/2000/svg">
<g clip-path="url(#clip0_3587_5463)">
<path d="M21.75 12.75C24.2375 12.75 26.25 10.7375 26.25 8.24997C26.25 5.76247 24.2375 3.75 21.75 3.75C19.2625 3.75 17.25 5.76247 17.25 8.24997C17.25 10.7375 19.2625 12.75 21.75 12.75Z" stroke="#000040" stroke-width="1.5" stroke-miterlimit="10" stroke-linecap="round"/>
<path d="M8.25001 12.75C10.7375 12.75 12.75 10.7375 12.75 8.24997C12.75 5.76247 10.7375 3.75 8.25001 3.75C5.76251 3.75 3.75 5.76247 3.75 8.24997C3.75 10.7375 5.76251 12.75 8.25001 12.75Z" stroke="#000040" stroke-width="1.5" stroke-miterlimit="10" stroke-linecap="round"/>
<path d="M21.75 26.25C24.2375 26.25 26.25 24.2375 26.25 21.75C26.25 19.2625 24.2375 17.25 21.75 17.25C19.2625 17.25 17.25 19.2625 17.25 21.75C17.25 24.2375 19.2625 26.25 21.75 26.25Z" stroke="#000040" stroke-width="1.5" stroke-miterlimit="10" stroke-linecap="round"/>
<path d="M8.25001 26.25C10.7375 26.25 12.75 24.2375 12.75 21.75C12.75 19.2625 10.7375 17.25 8.25001 17.25C5.76251 17.25 3.75 19.2625 3.75 21.75C3.75 24.2375 5.76251 26.25 8.25001 26.25Z" stroke="#000040" stroke-width="1.5" stroke-miterlimit="10" stroke-linecap="round"/>
</g>
<defs>
<clipPath id="clip0_3587_5463">
<rect width="30" height="30" fill="white"/>
</clipPath>
</defs>
</svg>
