<svg width="20" height="21" viewBox="0 0 20 21" fill="none" xmlns="http://www.w3.org/2000/svg">
<path d="M8.1999 3.80078H11.7999C11.7999 3.32339 11.6103 2.86555 11.2727 2.52799C10.9351 2.19042 10.4773 2.00078 9.9999 2.00078C9.52251 2.00078 9.06468 2.19042 8.72711 2.52799C8.38954 2.86555 8.1999 3.32339 8.1999 3.80078ZM6.9999 3.80078C6.9999 3.00513 7.31597 2.24207 7.87858 1.67946C8.44119 1.11685 9.20425 0.800781 9.9999 0.800781C10.7956 0.800781 11.5586 1.11685 12.1212 1.67946C12.6838 2.24207 12.9999 3.00513 12.9999 3.80078H18.9999C19.159 3.80078 19.3116 3.864 19.4242 3.97652C19.5367 4.08904 19.5999 4.24165 19.5999 4.40078C19.5999 4.55991 19.5367 4.71252 19.4242 4.82505C19.3116 4.93757 19.159 5.00078 18.9999 5.00078H17.7351L16.3023 17.4136C16.201 18.291 15.7807 19.1006 15.1213 19.6883C14.462 20.2759 13.6096 20.6007 12.7263 20.6008H7.2735C6.39025 20.6007 5.53784 20.2759 4.87847 19.6883C4.2191 19.1006 3.79878 18.291 3.6975 17.4136L2.2647 5.00078H0.999902C0.840772 5.00078 0.68816 4.93757 0.575638 4.82505C0.463117 4.71252 0.399902 4.55991 0.399902 4.40078C0.399902 4.24165 0.463117 4.08904 0.575638 3.97652C0.68816 3.864 0.840772 3.80078 0.999902 3.80078H6.9999ZM4.8891 17.2768C4.95681 17.8617 5.23716 18.4012 5.6768 18.7929C6.11645 19.1845 6.68472 19.4009 7.2735 19.4008H12.7263C13.3151 19.4009 13.8834 19.1845 14.323 18.7929C14.7626 18.4012 15.043 17.8617 15.1107 17.2768L16.5267 5.00078H3.4731L4.8891 17.2768ZM8.1999 8.00078C8.35903 8.00078 8.51165 8.06399 8.62417 8.17652C8.73669 8.28904 8.7999 8.44165 8.7999 8.60078V15.8008C8.7999 15.9599 8.73669 16.1125 8.62417 16.225C8.51165 16.3376 8.35903 16.4008 8.1999 16.4008C8.04077 16.4008 7.88816 16.3376 7.77564 16.225C7.66312 16.1125 7.5999 15.9599 7.5999 15.8008V8.60078C7.5999 8.44165 7.66312 8.28904 7.77564 8.17652C7.88816 8.06399 8.04077 8.00078 8.1999 8.00078ZM12.3999 8.60078C12.3999 8.44165 12.3367 8.28904 12.2242 8.17652C12.1116 8.06399 11.959 8.00078 11.7999 8.00078C11.6408 8.00078 11.4882 8.06399 11.3756 8.17652C11.2631 8.28904 11.1999 8.44165 11.1999 8.60078V15.8008C11.1999 15.9599 11.2631 16.1125 11.3756 16.225C11.4882 16.3376 11.6408 16.4008 11.7999 16.4008C11.959 16.4008 12.1116 16.3376 12.2242 16.225C12.3367 16.1125 12.3999 15.9599 12.3999 15.8008V8.60078Z" fill="white"/>
</svg>
