<svg width="24" height="24" viewBox="0 0 24 24" fill="none" xmlns="http://www.w3.org/2000/svg">
<path d="M10.1999 4.80078H13.7999C13.7999 4.32339 13.6103 3.86555 13.2727 3.52799C12.9351 3.19042 12.4773 3.00078 11.9999 3.00078C11.5225 3.00078 11.0647 3.19042 10.7271 3.52799C10.3895 3.86555 10.1999 4.32339 10.1999 4.80078ZM8.9999 4.80078C8.9999 4.00513 9.31597 3.24207 9.87858 2.67946C10.4412 2.11685 11.2043 1.80078 11.9999 1.80078C12.7956 1.80078 13.5586 2.11685 14.1212 2.67946C14.6838 3.24207 14.9999 4.00513 14.9999 4.80078H20.9999C21.159 4.80078 21.3116 4.864 21.4242 4.97652C21.5367 5.08904 21.5999 5.24165 21.5999 5.40078C21.5999 5.55991 21.5367 5.71252 21.4242 5.82505C21.3116 5.93757 21.159 6.00078 20.9999 6.00078H19.7351L18.3023 18.4136C18.201 19.291 17.7807 20.1006 17.1213 20.6883C16.462 21.2759 15.6096 21.6007 14.7263 21.6008H9.2735C8.39025 21.6007 7.53784 21.2759 6.87847 20.6883C6.2191 20.1006 5.79878 19.291 5.6975 18.4136L4.2647 6.00078H2.9999C2.84077 6.00078 2.68816 5.93757 2.57564 5.82505C2.46312 5.71252 2.3999 5.55991 2.3999 5.40078C2.3999 5.24165 2.46312 5.08904 2.57564 4.97652C2.68816 4.864 2.84077 4.80078 2.9999 4.80078H8.9999ZM6.8891 18.2768C6.95681 18.8617 7.23716 19.4012 7.6768 19.7929C8.11645 20.1845 8.68472 20.4009 9.2735 20.4008H14.7263C15.3151 20.4009 15.8834 20.1845 16.323 19.7929C16.7626 19.4012 17.043 18.8617 17.1107 18.2768L18.5267 6.00078H5.4731L6.8891 18.2768ZM10.1999 9.00078C10.359 9.00078 10.5116 9.06399 10.6242 9.17652C10.7367 9.28904 10.7999 9.44165 10.7999 9.60078V16.8008C10.7999 16.9599 10.7367 17.1125 10.6242 17.225C10.5116 17.3376 10.359 17.4008 10.1999 17.4008C10.0408 17.4008 9.88816 17.3376 9.77564 17.225C9.66312 17.1125 9.5999 16.9599 9.5999 16.8008V9.60078C9.5999 9.44165 9.66312 9.28904 9.77564 9.17652C9.88816 9.06399 10.0408 9.00078 10.1999 9.00078ZM14.3999 9.60078C14.3999 9.44165 14.3367 9.28904 14.2242 9.17652C14.1116 9.06399 13.959 9.00078 13.7999 9.00078C13.6408 9.00078 13.4882 9.06399 13.3756 9.17652C13.2631 9.28904 13.1999 9.44165 13.1999 9.60078V16.8008C13.1999 16.9599 13.2631 17.1125 13.3756 17.225C13.4882 17.3376 13.6408 17.4008 13.7999 17.4008C13.959 17.4008 14.1116 17.3376 14.2242 17.225C14.3367 17.1125 14.3999 16.9599 14.3999 16.8008V9.60078Z" fill="white"/>
</svg>
