<svg width="24" height="24" viewBox="0 0 24 24" fill="none" xmlns="http://www.w3.org/2000/svg">
<path d="M1.99951 14.5012C1.99951 15.092 2.11588 15.677 2.34198 16.2229C2.56808 16.7687 2.89947 17.2647 3.31725 17.6825C4.16098 18.5262 5.30532 19.0002 6.49854 19.0002H18.4959C19.3817 19.0018 20.2351 18.6674 20.884 18.0645C21.533 17.4616 21.9291 16.635 21.9925 15.7515C22.0559 14.868 21.7819 13.9934 21.2258 13.3039C20.6696 12.6145 19.8727 12.1617 18.9958 12.0367C19.0056 10.3359 18.3956 8.68964 17.2799 7.40581C16.1642 6.12199 14.6191 5.28842 12.9335 5.06094C11.2479 4.83345 9.53708 5.22762 8.12095 6.16976C6.70482 7.1119 5.68027 8.53751 5.23881 10.1801C4.30413 10.4531 3.48317 11.0218 2.89912 11.8009C2.31506 12.58 1.9994 13.5275 1.99951 14.5012Z" stroke="white" stroke-width="1.5" stroke-linejoin="round"/>
<path d="M9.99756 13.0011L11.9971 15.0007M11.9971 15.0007L13.9967 13.0011M11.9971 15.0007V9.00195" stroke="white" stroke-width="1.5" stroke-linecap="round" stroke-linejoin="round"/>
</svg>
