<svg width="24" height="24" viewBox="0 0 24 24" fill="none" xmlns="http://www.w3.org/2000/svg">
<g clip-path="url(#clip0_2775_8274)">
<path d="M6.14996 3H17.85C18.23 3 18.61 3.10003 18.94 3.28003C19.26 3.47003 19.54 3.72999 19.73 4.04999C19.91 4.36999 20.01 4.72998 20 5.09998C19.99 5.46998 19.89 5.83001 19.69 6.14001L16 11.97C15.49 12.78 15.21 13.71 15.21 14.66V18.78C15.21 20.72 13.79 21.51 12.04 20.6L9.90997 19.48C9.58997 19.29 9.30997 19.02 9.10997 18.7C8.91997 18.38 8.80996 18.03 8.78996 17.66V14.66C8.78996 13.71 8.51997 12.78 7.99997 11.97L4.31997 6.14001C4.11997 5.83001 4.01996 5.46998 4.00996 5.09998C3.99996 4.72998 4.09997 4.36999 4.27997 4.04999C4.46997 3.72999 4.73997 3.46003 5.06997 3.28003C5.39997 3.09003 5.77997 3 6.15997 3H6.14996Z" stroke="#000040" stroke-width="1.5" stroke-linecap="round" stroke-linejoin="round"/>
<path d="M9.8501 3.00977L15.7101 12.4598" stroke="#000040" stroke-width="1.5" stroke-linecap="round" stroke-linejoin="round"/>
</g>
<defs>
<clipPath id="clip0_2775_8274">
<rect width="24" height="24" fill="white"/>
</clipPath>
</defs>
</svg>
