<svg width="30" height="30" viewBox="0 0 30 30" fill="none" xmlns="http://www.w3.org/2000/svg">
<path d="M15 27.625C8.03864 27.625 2.375 21.9614 2.375 15C2.375 8.03864 8.03864 2.375 15 2.375C21.9614 2.375 27.625 8.03864 27.625 15C27.625 21.9614 21.9614 27.625 15 27.625ZM15 3.25C8.51761 3.25 3.25 8.51761 3.25 15C3.25 21.4824 8.51761 26.75 15 26.75C21.4824 26.75 26.75 21.4824 26.75 15C26.75 8.51761 21.4824 3.25 15 3.25Z" fill="#000040" stroke="#000040"/>
<path d="M12.6782 11.6875H11.7876C12.0256 10.1228 13.3651 8.9375 15 8.9375C16.8051 8.9375 18.25 10.3824 18.25 12.1875C18.25 13.1127 17.7231 13.6252 17.0141 14.2467C16.9839 14.2732 16.9532 14.3 16.922 14.3271C16.359 14.8183 15.6681 15.4209 15.4842 16.375H14.594C14.6496 15.958 14.7742 15.6404 14.9296 15.3838C15.1466 15.0255 15.4421 14.7547 15.7795 14.487C15.8489 14.432 15.9232 14.3749 16.0001 14.3159C16.2701 14.1087 16.5719 13.8771 16.8055 13.6201C17.1345 13.2582 17.375 12.8054 17.375 12.1875C17.375 10.8801 16.3074 9.8125 15 9.8125C13.864 9.8125 12.9091 10.6185 12.6782 11.6875Z" fill="#000040" stroke="#000040"/>
<path d="M14.9999 21.7879C15.6419 21.7879 16.1624 21.2674 16.1624 20.6254C16.1624 19.9834 15.6419 19.4629 14.9999 19.4629C14.3579 19.4629 13.8374 19.9834 13.8374 20.6254C13.8374 21.2674 14.3579 21.7879 14.9999 21.7879Z" fill="#000040"/>
<path d="M12.1875 13.125C12.7053 13.125 13.125 12.7053 13.125 12.1875C13.125 11.6697 12.7053 11.25 12.1875 11.25C11.6697 11.25 11.25 11.6697 11.25 12.1875C11.25 12.7053 11.6697 13.125 12.1875 13.125Z" fill="#000040"/>
<path d="M15 17.8125C15.5178 17.8125 15.9375 17.3928 15.9375 16.875C15.9375 16.3572 15.5178 15.9375 15 15.9375C14.4822 15.9375 14.0625 16.3572 14.0625 16.875C14.0625 17.3928 14.4822 17.8125 15 17.8125Z" fill="#000040"/>
</svg>
