<svg width="41" height="40" viewBox="0 0 41 40" fill="none" xmlns="http://www.w3.org/2000/svg">
<path d="M15.2019 28.8385C13.4449 28.8385 12.1479 28.8075 10.9539 28.7775C9.93993 28.7535 8.99993 28.7305 7.91093 28.7305C6.20182 28.7286 4.56323 28.0489 3.35461 26.8405C2.146 25.6321 1.46605 23.9936 1.46393 22.2845C1.45927 21.2353 1.71289 20.2011 2.20242 19.2732C2.69196 18.3452 3.40235 17.552 4.27093 16.9635C4.12607 16.26 4.05336 15.5437 4.05393 14.8255C4.05393 8.98347 8.80693 4.23047 14.6499 4.23047C18.5619 4.23047 22.1449 6.39447 23.9819 9.80447C24.5802 9.19132 25.2957 8.70462 26.0857 8.37326C26.8757 8.04189 27.7242 7.87261 28.5809 7.87547C29.5602 7.8764 30.5265 8.10017 31.4065 8.52983C32.2865 8.95949 33.0572 9.58378 33.6602 10.3554C34.2632 11.127 34.6827 12.0258 34.8869 12.9835C35.0911 13.9413 35.0747 14.933 34.8389 15.8835C36.1914 16.265 37.3823 17.0777 38.2305 18.1981C39.0787 19.3185 39.5378 20.6852 39.5379 22.0905C39.5361 23.7998 38.8563 25.4387 37.6477 26.6475C36.439 27.8563 34.8003 28.5364 33.0909 28.5385C31.4299 28.5385 30.2639 28.5515 29.1119 28.5625C27.9859 28.5745 26.8729 28.5865 25.3279 28.5865C25.1953 28.5865 25.0681 28.5338 24.9744 28.44C24.8806 28.3463 24.8279 28.2191 24.8279 28.0865C24.8279 27.9539 24.8806 27.8267 24.9744 27.7329C25.0681 27.6391 25.1953 27.5865 25.3279 27.5865C26.8689 27.5865 27.9779 27.5745 29.1009 27.5625C30.2559 27.5505 31.4259 27.5385 33.0909 27.5385C34.4476 27.5402 35.7562 27.0355 36.7604 26.1233C37.7646 25.211 38.3922 23.9569 38.5204 22.6062C38.6486 21.2556 38.2682 19.9057 37.4536 18.8208C36.6389 17.7359 35.4487 16.9941 34.1159 16.7405C34.0456 16.727 33.979 16.6986 33.9207 16.6572C33.8623 16.6158 33.8135 16.5623 33.7775 16.5004C33.7416 16.4385 33.7194 16.3696 33.7124 16.2983C33.7054 16.2271 33.7137 16.1552 33.7369 16.0875C34.0169 15.2671 34.0973 14.3917 33.9713 13.5341C33.8453 12.6764 33.5166 11.8612 33.0125 11.156C32.5084 10.4508 31.8434 9.87593 31.0727 9.47915C30.302 9.08236 29.4478 8.87507 28.5809 8.87447C27.7457 8.87208 26.9213 9.06304 26.1722 9.43239C25.423 9.80175 24.7696 10.3395 24.2629 11.0035C24.2104 11.0724 24.1409 11.1265 24.0611 11.1603C23.9813 11.1941 23.8941 11.2065 23.8081 11.1963C23.722 11.1861 23.6401 11.1537 23.5705 11.1021C23.5008 11.0506 23.4458 10.9818 23.4109 10.9025C22.652 9.21377 21.4216 7.78008 19.8677 6.77358C18.3138 5.76708 16.5023 5.23056 14.6509 5.22847C9.35993 5.22847 5.05493 9.53247 5.05493 14.8235C5.05493 15.5835 5.14493 16.3415 5.32193 17.0755C5.34684 17.1786 5.33827 17.2871 5.29746 17.385C5.25665 17.483 5.18571 17.5655 5.09493 17.6205C4.28972 18.1025 3.62382 18.7859 3.1627 19.6033C2.70158 20.4207 2.46111 21.344 2.46493 22.2825C2.46678 23.7264 3.04129 25.1107 4.06243 26.1317C5.08356 27.1526 6.46796 27.7269 7.91193 27.7285C9.00993 27.7285 9.95693 27.7505 10.9789 27.7765C12.1669 27.8045 13.4559 27.8365 15.2029 27.8365C15.3358 27.8366 15.4632 27.8895 15.557 27.9836C15.6509 28.0776 15.7036 28.2051 15.7034 28.338C15.7033 28.4708 15.6504 28.5982 15.5563 28.6921C15.4623 28.7859 15.3348 28.8386 15.2019 28.8385Z" fill="#1B2E3C"/>
<path d="M26.8502 22.4554C26.7208 22.4555 26.5964 22.4053 26.5032 22.3155L19.7262 15.7805L12.9802 22.2884C12.8846 22.3805 12.7563 22.4308 12.6236 22.4282C12.491 22.4257 12.3647 22.3706 12.2727 22.2749C12.1807 22.1793 12.1304 22.0511 12.1329 21.9184C12.1354 21.7857 12.1906 21.6595 12.2862 21.5675L19.3792 14.7265C19.4722 14.6365 19.5966 14.5861 19.726 14.5859C19.8554 14.5858 19.9799 14.6358 20.0732 14.7255L27.1962 21.5944C27.2682 21.6635 27.318 21.7525 27.339 21.8501C27.36 21.9477 27.3514 22.0493 27.3142 22.1419C27.277 22.2345 27.2129 22.3138 27.1302 22.3697C27.0475 22.4256 26.95 22.4555 26.8502 22.4554Z" fill="#1B2E3C"/>
<path d="M19.7256 35.7699C19.593 35.7699 19.4658 35.7172 19.372 35.6234C19.2783 35.5297 19.2256 35.4025 19.2256 35.2699V15.0879C19.2256 14.9553 19.2783 14.8281 19.372 14.7343C19.4658 14.6406 19.593 14.5879 19.7256 14.5879C19.8582 14.5879 19.9854 14.6406 20.0791 14.7343C20.1729 14.8281 20.2256 14.9553 20.2256 15.0879V35.2709C20.2253 35.4033 20.1725 35.5302 20.0788 35.6238C19.985 35.7173 19.858 35.7699 19.7256 35.7699Z" fill="#1B2E3C"/>
</svg>
