<svg width="30" height="30" viewBox="0 0 30 30" fill="none" xmlns="http://www.w3.org/2000/svg">
<g clip-path="url(#clip0_3587_5494)">
<path d="M22.4375 15.8122C22.4375 16.1622 22.5125 16.4996 22.5125 16.8496C22.5125 18.7121 21.9749 20.5246 20.9374 22.0746C19.9124 23.6246 18.45 24.8246 16.7375 25.5371C15.025 26.2496 13.1374 26.4371 11.3124 26.0746C9.48743 25.7121 7.81247 24.8246 6.49997 23.5121C5.19997 22.1996 4.29994 20.5247 3.93744 18.6997C3.56244 16.8747 3.74996 14.9871 4.46246 13.2746C5.16246 11.5621 6.37493 10.0871 7.91243 9.06213C9.46243 8.02463 11.275 7.47461 13.1249 7.47461C13.4749 7.47461 13.8124 7.49967 14.1624 7.53717" stroke="#000040" stroke-width="1.5" stroke-miterlimit="10" stroke-linecap="round"/>
<path d="M24.1876 15.8119H16.2001C15.6626 15.8119 15.1376 15.5993 14.7626 15.2118C14.3876 14.8243 14.1626 14.3119 14.1626 13.7619V5.82431C14.1626 5.51181 14.2001 5.21185 14.3251 4.92435C14.4501 4.63685 14.6376 4.38683 14.8751 4.19933C15.1126 3.99933 15.4001 3.86182 15.7001 3.79932C16.0001 3.73682 16.3126 3.73683 16.6126 3.81183C18.9626 4.29933 21.1376 5.46182 22.8376 7.16182C24.5376 8.86182 25.7001 11.0368 26.1876 13.3993C26.2626 13.6993 26.2626 13.9994 26.1876 14.2994C26.1126 14.5994 25.9751 14.8744 25.7876 15.0994C25.5876 15.3369 25.3501 15.5244 25.0751 15.6369C24.7876 15.7619 24.4876 15.8244 24.1876 15.8119Z" stroke="#000040" stroke-width="1.5" stroke-miterlimit="10" stroke-linecap="round"/>
</g>
<defs>
<clipPath id="clip0_3587_5494">
<rect width="30" height="30" fill="white"/>
</clipPath>
</defs>
</svg>
