<svg width="26" height="22" viewBox="0 0 26 22" fill="none" xmlns="http://www.w3.org/2000/svg">
<path d="M25.1875 4.4375V17.5625C25.1875 18.3084 24.8912 19.0238 24.3637 19.5512C23.8363 20.0787 23.1209 20.375 22.375 20.375H3.625C2.87908 20.375 2.16371 20.0787 1.63626 19.5512C1.10882 19.0238 0.8125 18.3084 0.8125 17.5625V4.4375M25.1875 4.4375C25.1875 3.69158 24.8912 2.97621 24.3637 2.44876C23.8363 1.92132 23.1209 1.625 22.375 1.625H3.625C2.87908 1.625 2.16371 1.92132 1.63626 2.44876C1.10882 2.97621 0.8125 3.69158 0.8125 4.4375M25.1875 4.4375V4.74125C25.1876 5.22143 25.0647 5.69363 24.8305 6.11287C24.5964 6.53211 24.2588 6.88442 23.85 7.13625L14.475 12.905C14.0315 13.1782 13.5209 13.3228 13 13.3228C12.4791 13.3228 11.9685 13.1782 11.525 12.905L2.15 7.1375C1.74115 6.88567 1.40359 6.53336 1.16946 6.11412C0.935336 5.69488 0.812447 5.22268 0.8125 4.7425V4.4375" stroke="#000040" stroke-width="1.5" stroke-linecap="round" stroke-linejoin="round"/>
</svg>
