<svg width="50" height="50" viewBox="0 0 50 50" fill="none" xmlns="http://www.w3.org/2000/svg">
<rect width="50" height="50" rx="25" fill="#FCEAEA"/>
<path fill-rule="evenodd" clip-rule="evenodd" d="M23.7681 16.2312L18.4106 21.5887C17.9219 22.0774 17.1319 22.0774 16.6431 21.5887C16.1544 21.0999 16.1544 20.3099 16.6431 19.8212L23.2594 13.2049C24.2331 12.2312 25.8206 12.2312 26.7944 13.2049L33.4106 19.8212C33.8994 20.3099 33.8994 21.0999 33.4106 21.5887C33.1669 21.8324 32.8469 21.9549 32.5269 21.9549C32.2069 21.9549 31.8869 21.8324 31.6431 21.5887L26.2681 16.2137L26.2769 29.9899C26.2769 30.6799 25.7169 31.2412 25.0269 31.2412C24.3369 31.2412 23.7769 30.6812 23.7769 29.9924L23.7681 16.2312ZM16.25 34.9993H35C35.6912 34.9993 36.25 35.558 36.25 36.2493C36.25 36.9405 35.6912 37.4993 35 37.4993H16.25C15.5588 37.4993 15 36.9405 15 36.2493C15 35.558 15.5588 34.9993 16.25 34.9993Z" fill="#EA5455"/>
</svg>
