<svg width="50" height="50" viewBox="0 0 50 50" fill="none" xmlns="http://www.w3.org/2000/svg">
<rect width="50" height="50" rx="25" fill="#E5F8ED"/>
<path fill-rule="evenodd" clip-rule="evenodd" d="M25.0268 31.2402C24.3868 31.2402 23.7468 30.9964 23.2593 30.5089L16.643 23.8927C16.1543 23.4039 16.1543 22.6139 16.643 22.1252C17.1318 21.6364 17.9218 21.6364 18.4105 22.1252L23.7855 27.5002L23.7768 13.7239C23.7768 13.0339 24.3355 12.4727 25.0255 12.4727H25.0268C25.7168 12.4727 26.2768 13.0327 26.2768 13.7214L26.2855 27.4827L31.643 22.1252C32.1318 21.6364 32.9218 21.6364 33.4105 22.1252C33.8993 22.6139 33.8993 23.4039 33.4105 23.8927L26.7943 30.5089C26.3068 30.9964 25.6668 31.2402 25.0268 31.2402ZM16.25 34.9998H35C35.6912 34.9998 36.25 35.5585 36.25 36.2498C36.25 36.941 35.6912 37.4998 35 37.4998H16.25C15.5588 37.4998 15 36.941 15 36.2498C15 35.5585 15.5588 34.9998 16.25 34.9998Z" fill="#28C76F"/>
</svg>
