<svg width="50" height="50" viewBox="0 0 50 50" fill="none" xmlns="http://www.w3.org/2000/svg">
<rect width="50" height="50" rx="25" fill="#D6D6F6"/>
<path d="M25 28.75C25.9946 28.75 26.9484 28.3549 27.6516 27.6516C28.3549 26.9484 28.75 25.9946 28.75 25C28.75 24.0054 28.3549 23.0516 27.6516 22.3483C26.9484 21.6451 25.9946 21.25 25 21.25C24.0054 21.25 23.0516 21.6451 22.3483 22.3483C21.6451 23.0516 21.25 24.0054 21.25 25C21.25 25.9946 21.6451 26.9484 22.3483 27.6516C23.0516 28.3549 24.0054 28.75 25 28.75Z" fill="#000040"/>
<path d="M10 17.5C10 17.0027 10.1975 16.5258 10.5492 16.1742C10.9008 15.8225 11.3777 15.625 11.875 15.625H38.125C38.6223 15.625 39.0992 15.8225 39.4508 16.1742C39.8025 16.5258 40 17.0027 40 17.5V32.5C40 32.9973 39.8025 33.4742 39.4508 33.8258C39.0992 34.1775 38.6223 34.375 38.125 34.375H11.875C11.3777 34.375 10.9008 34.1775 10.5492 33.8258C10.1975 33.4742 10 32.9973 10 32.5V17.5ZM15.625 17.5C15.625 18.4946 15.2299 19.4484 14.5267 20.1517C13.8234 20.8549 12.8696 21.25 11.875 21.25V28.75C12.8696 28.75 13.8234 29.1451 14.5267 29.8484C15.2299 30.5516 15.625 31.5054 15.625 32.5H34.375C34.375 31.5054 34.7701 30.5516 35.4734 29.8484C36.1766 29.1451 37.1304 28.75 38.125 28.75V21.25C37.1304 21.25 36.1766 20.8549 35.4734 20.1517C34.7701 19.4484 34.375 18.4946 34.375 17.5H15.625Z" fill="#000040"/>
</svg>
