<svg width="50" height="50" viewBox="0 0 50 50" fill="none" xmlns="http://www.w3.org/2000/svg">
<rect width="50" height="50" rx="25" fill="#D6D6F6"/>
<g clip-path="url(#clip0_2795_10371)">
<path d="M32.4375 25.8122C32.4375 26.1622 32.5125 26.4996 32.5125 26.8496C32.5125 28.7121 31.9749 30.5246 30.9374 32.0746C29.9124 33.6246 28.45 34.8246 26.7375 35.5371C25.025 36.2496 23.1374 36.4371 21.3124 36.0746C19.4874 35.7121 17.8125 34.8246 16.5 33.5121C15.2 32.1996 14.2999 30.5247 13.9374 28.6997C13.5624 26.8747 13.75 24.9871 14.4625 23.2746C15.1625 21.5621 16.3749 20.0871 17.9124 19.0621C19.4624 18.0246 21.275 17.4746 23.1249 17.4746C23.4749 17.4746 23.8124 17.4997 24.1624 17.5372" stroke="#000040" stroke-width="1.5" stroke-miterlimit="10" stroke-linecap="round"/>
<path d="M34.1876 25.8119H26.2001C25.6626 25.8119 25.1376 25.5993 24.7626 25.2118C24.3876 24.8243 24.1626 24.3119 24.1626 23.7619V15.8243C24.1626 15.5118 24.2001 15.2119 24.3251 14.9244C24.4501 14.6369 24.6376 14.3868 24.8751 14.1993C25.1126 13.9993 25.4001 13.8618 25.7001 13.7993C26.0001 13.7368 26.3126 13.7368 26.6126 13.8118C28.9626 14.2993 31.1376 15.4618 32.8376 17.1618C34.5376 18.8618 35.7001 21.0368 36.1876 23.3993C36.2626 23.6993 36.2626 23.9994 36.1876 24.2994C36.1126 24.5994 35.9751 24.8744 35.7876 25.0994C35.5876 25.3369 35.3501 25.5244 35.0751 25.6369C34.7876 25.7619 34.4876 25.8244 34.1876 25.8119Z" stroke="#000040" stroke-width="1.5" stroke-miterlimit="10" stroke-linecap="round"/>
</g>
<defs>
<clipPath id="clip0_2795_10371">
<rect width="30" height="30" fill="white" transform="translate(10 10)"/>
</clipPath>
</defs>
</svg>
