<svg width="50" height="50" viewBox="0 0 50 50" fill="none" xmlns="http://www.w3.org/2000/svg">
<rect width="50" height="50" rx="25" fill="#FDF6ED"/>
<path d="M14.375 15.625H16.6835C17.3792 15.625 17.7271 15.625 17.989 15.8138C18.2508 16.0025 18.3608 16.3325 18.5808 16.9925L19.375 19.375" stroke="#FFAF70" stroke-width="1.5" stroke-linecap="round"/>
<path d="M31.875 31.875H20.0636C19.5694 31.875 19.3222 31.875 19.1453 31.8052C18.7817 31.6617 18.5351 31.3195 18.5139 30.9292C18.5036 30.7392 18.5817 30.5048 18.738 30.0359V30.0359C18.9114 29.5159 18.998 29.2559 19.1326 29.046C19.4066 28.6183 19.833 28.311 20.3254 28.1862C20.5671 28.125 20.8412 28.125 21.3892 28.125H28.125" stroke="#FFAF70" stroke-width="1.5" stroke-linecap="round" stroke-linejoin="round"/>
<path d="M28.3037 28.125H23.2626C21.9834 28.125 21.3438 28.125 20.8428 27.7947C20.3419 27.4644 20.0899 26.8765 19.586 25.7007L18.6672 23.5568C17.8577 21.6679 17.4529 20.7235 17.8975 20.0493C18.3422 19.375 19.3696 19.375 21.4246 19.375H30.4555C32.7545 19.375 33.904 19.375 34.3376 20.1221C34.7712 20.8692 34.2008 21.8673 33.0602 23.8634L31.7767 26.1096C31.2147 27.0929 30.9338 27.5846 30.4682 27.8548C30.0026 28.125 29.4363 28.125 28.3037 28.125Z" stroke="#FFAF70" stroke-width="1.5" stroke-linecap="round"/>
<circle cx="31.25" cy="35" r="1.25" fill="#FFAF70"/>
<circle cx="21.25" cy="35" r="1.25" fill="#FFAF70"/>
<circle cx="32.5" cy="17.5" r="6.75" fill="#FDF6ED" stroke="#FFAF70" stroke-width="1.5"/>
<g clip-path="url(#clip0_2797_10516)">
<path d="M32.5 14.8145V19.907" stroke="#FFAF70" stroke-width="1.5" stroke-linecap="round" stroke-linejoin="round"/>
<path d="M34.8332 18.0312L32.6661 20.0029C32.5757 20.0846 32.4269 20.0846 32.3365 20.0029L30.1694 18.0312" stroke="#FFAF70" stroke-width="1.5" stroke-linecap="round" stroke-linejoin="round"/>
</g>
<defs>
<clipPath id="clip0_2797_10516">
<rect width="7" height="7" fill="white" transform="translate(29 14)"/>
</clipPath>
</defs>
</svg>
