<svg width="30" height="30" viewBox="0 0 30 30" fill="none" xmlns="http://www.w3.org/2000/svg">
<mask id="path-1-inside-1_3587_5474" fill="white">
<path d="M8.53582 1.50469L8.39051 1.65V3.84844V6.04688H6.1827H3.97488L3.83426 6.1875C3.7077 6.31406 3.68895 6.38437 3.62332 6.83437C3.58113 7.11094 3.53426 7.34531 3.51551 7.35938C3.49676 7.37344 3.4452 7.64531 3.39832 7.96875C3.35145 8.29219 3.29988 8.56406 3.28582 8.57812C3.26707 8.59219 3.21082 8.86406 3.16395 9.1875C3.11707 9.51094 3.06551 9.79219 3.04676 9.82031C3.02801 9.84375 2.97645 10.1109 2.93426 10.4062C2.88738 10.7016 2.83113 10.9875 2.81238 11.0391C2.78895 11.0906 2.73738 11.3625 2.6952 11.6484C2.65301 11.9297 2.60145 12.1969 2.5827 12.2344C2.55926 12.2719 2.5077 12.5578 2.46082 12.8672C2.41395 13.1766 2.36238 13.4484 2.33895 13.4719C2.28738 13.5328 2.2827 14.4844 2.33426 14.4844C2.3577 14.4844 2.39988 14.6203 2.4327 14.7891C2.46551 14.9578 2.51707 15.1219 2.54988 15.1547C2.57801 15.1875 2.63895 15.2906 2.68582 15.3891C2.77957 15.6 2.79832 15.6187 3.16395 16.0125C3.31863 16.1766 3.46863 16.3125 3.49207 16.3125C3.5202 16.3125 3.57645 16.3547 3.62332 16.4062C3.69832 16.4953 3.70301 16.8891 3.70301 22.425V28.35L3.84832 28.4953L3.99363 28.6406H14.9999H26.0061L26.1514 28.4953L26.2968 28.35V22.425C26.2968 16.8891 26.3014 16.4953 26.3764 16.4062C26.4233 16.3547 26.4796 16.3125 26.5077 16.3125C26.5311 16.3125 26.6811 16.1766 26.8358 16.0125C27.2014 15.6187 27.2202 15.6 27.3139 15.3891C27.3608 15.2906 27.4218 15.1875 27.4499 15.1547C27.4827 15.1219 27.5343 14.9578 27.5671 14.7891C27.5999 14.6203 27.6421 14.4844 27.6655 14.4844C27.6843 14.4844 27.703 14.25 27.703 13.9687C27.703 13.6828 27.6843 13.4531 27.6655 13.4531C27.6421 13.4531 27.5858 13.1859 27.5389 12.8531C27.4968 12.525 27.4405 12.2484 27.4264 12.2344C27.4077 12.2203 27.3514 11.9484 27.3046 11.625C27.2577 11.3016 27.2061 11.0156 27.1874 10.9922C27.1686 10.9641 27.1171 10.7016 27.0749 10.4062C27.028 10.1109 26.9764 9.83437 26.9577 9.79688C26.9343 9.75937 26.8827 9.47344 26.8358 9.16406C26.7889 8.85469 26.7374 8.59219 26.7186 8.57812C26.7046 8.56406 26.6483 8.29219 26.6014 7.96875C26.5546 7.64531 26.503 7.37344 26.4843 7.35938C26.4655 7.34531 26.4186 7.11094 26.3764 6.83437C26.3108 6.38437 26.2921 6.31406 26.1655 6.1875L26.0249 6.04688H23.8171H21.6093V3.84844V1.65L21.4639 1.50469L21.3186 1.35937H14.9999H8.68113L8.53582 1.50469ZM20.578 6.5625V10.7344H14.9999H9.42176V6.5625V2.39062H14.9999H20.578V6.5625ZM8.37645 10.6734C8.36238 14.2219 8.34832 14.5641 8.2077 14.6719C8.19363 14.6859 8.13738 14.7797 8.08582 14.8781C7.96395 15.1172 7.61707 15.4641 7.37801 15.5859C7.27957 15.6375 7.18582 15.6937 7.17176 15.7078C7.0077 15.9187 4.71082 15.9187 4.54676 15.7078C4.5327 15.6937 4.43895 15.6375 4.34051 15.5859C4.10145 15.4641 3.75457 15.1172 3.6327 14.8781C3.58113 14.7797 3.52488 14.6859 3.51082 14.6719C3.44988 14.625 3.37488 14.2734 3.37488 14.0484C3.37488 13.7719 3.45926 13.1812 3.51551 13.0547C3.53895 13.0031 3.59051 12.7266 3.6327 12.4453C3.67488 12.1594 3.72645 11.8875 3.74988 11.8359C3.77332 11.7844 3.82957 11.4984 3.87176 11.2031C3.91395 10.9078 3.96551 10.6406 3.98426 10.6172C4.00301 10.5891 4.05457 10.3172 4.10145 10.0078C4.14832 9.69844 4.19988 9.42188 4.21863 9.39844C4.23738 9.37031 4.29363 9.08906 4.34051 8.76562C4.38738 8.44219 4.43895 8.17031 4.45301 8.15625C4.47176 8.14219 4.50926 7.96406 4.54207 7.75781C4.57488 7.55156 4.61238 7.3125 4.62645 7.22812L4.64988 7.07812H6.52488H8.3952L8.37645 10.6734ZM25.3733 7.22812C25.3874 7.3125 25.4249 7.55156 25.4577 7.75781C25.4905 7.96406 25.528 8.14219 25.5468 8.15625C25.5608 8.17031 25.6124 8.44219 25.6593 8.76562C25.7061 9.08906 25.7624 9.37031 25.7811 9.39844C25.7999 9.42188 25.8514 9.69844 25.8983 10.0078C25.9452 10.3172 25.9968 10.5891 26.0155 10.6172C26.0343 10.6406 26.0858 10.9078 26.128 11.2031C26.1702 11.4984 26.2264 11.7844 26.2499 11.8359C26.2733 11.8875 26.3249 12.1594 26.3671 12.4453C26.4093 12.7266 26.4608 13.0031 26.4843 13.0547C26.5405 13.1812 26.6249 13.7719 26.6249 14.0484C26.6249 14.2734 26.5499 14.625 26.4889 14.6719C26.4749 14.6859 26.4186 14.7797 26.3671 14.8781C26.2452 15.1172 25.8983 15.4641 25.6593 15.5859C25.5608 15.6375 25.4671 15.6937 25.453 15.7078C25.2655 15.9234 22.9921 15.9234 22.828 15.7078C22.8139 15.6937 22.7202 15.6375 22.6218 15.5859C22.3827 15.4641 22.0358 15.1172 21.9139 14.8781C21.8624 14.7797 21.8061 14.6859 21.7921 14.6719C21.6514 14.5641 21.6374 14.2219 21.6233 10.6734L21.6046 7.07812H23.4749H25.3499L25.3733 7.22812ZM14.4702 13.0172C14.4468 14.1656 14.4046 14.5922 14.3014 14.6719C14.2874 14.6859 14.2311 14.7797 14.1796 14.8781C14.0577 15.1172 13.7108 15.4641 13.4718 15.5859C13.3733 15.6375 13.2796 15.6937 13.2655 15.7078C13.1858 15.8109 12.7546 15.8625 11.953 15.8625C11.1514 15.8625 10.7202 15.8109 10.6405 15.7078C10.6264 15.6937 10.5327 15.6375 10.4343 15.5859C10.1952 15.4641 9.84832 15.1172 9.72645 14.8781C9.67488 14.7797 9.61863 14.6859 9.60457 14.6719C9.50145 14.5922 9.45926 14.1656 9.43582 13.0172L9.41238 11.7656H11.953H14.4936L14.4702 13.0172ZM20.5639 13.0172C20.5405 14.1656 20.4983 14.5922 20.3952 14.6719C20.3811 14.6859 20.3249 14.7797 20.2733 14.8781C20.1514 15.1172 19.8046 15.4641 19.5655 15.5859C19.4671 15.6375 19.3733 15.6937 19.3593 15.7078C19.2796 15.8109 18.8483 15.8625 18.0468 15.8625C17.2452 15.8625 16.8139 15.8109 16.7343 15.7078C16.7202 15.6937 16.6264 15.6375 16.528 15.5859C16.2889 15.4641 15.9421 15.1172 15.8202 14.8781C15.7686 14.7797 15.7124 14.6859 15.6983 14.6719C15.5952 14.5922 15.553 14.1656 15.5296 13.0172L15.5061 11.7656H18.0468H20.5874L20.5639 13.0172ZM8.98582 15.6891C8.99988 15.7359 9.1452 15.9 9.30457 16.0547C9.67957 16.4156 9.7077 16.4344 9.92332 16.5328C10.0218 16.5797 10.1249 16.6406 10.1577 16.6687C10.1905 16.7016 10.3546 16.7531 10.5233 16.7859C10.6921 16.8187 10.828 16.8609 10.828 16.8844C10.828 16.9031 11.3343 16.9219 11.953 16.9219C12.5718 16.9219 13.078 16.9031 13.078 16.8844C13.078 16.8609 13.2139 16.8187 13.3827 16.7859C13.5514 16.7531 13.7155 16.7016 13.7483 16.6687C13.7811 16.6406 13.8843 16.5797 13.9827 16.5328C14.1983 16.4344 14.2264 16.4156 14.6014 16.0547C14.7608 15.9 14.9061 15.7359 14.9202 15.6891C14.9389 15.6469 14.9718 15.6094 14.9999 15.6094C15.028 15.6094 15.0608 15.6469 15.0796 15.6891C15.0936 15.7359 15.2389 15.9 15.3983 16.0547C15.7733 16.4156 15.8014 16.4344 16.0171 16.5328C16.1155 16.5797 16.2186 16.6406 16.2514 16.6687C16.2843 16.7016 16.4483 16.7531 16.6171 16.7859C16.7858 16.8187 16.9218 16.8609 16.9218 16.8844C16.9218 16.9031 17.428 16.9219 18.0468 16.9219C18.6655 16.9219 19.1718 16.9031 19.1718 16.8844C19.1718 16.8609 19.3077 16.8187 19.4764 16.7859C19.6452 16.7531 19.8093 16.7016 19.8421 16.6687C19.8749 16.6406 19.978 16.5797 20.0764 16.5328C20.2921 16.4344 20.3202 16.4156 20.6952 16.0547C20.8546 15.9 20.9999 15.7359 21.0139 15.6891C21.0327 15.6469 21.0655 15.6094 21.0936 15.6094C21.1218 15.6094 21.1546 15.6469 21.1733 15.6891C21.1874 15.7359 21.3327 15.9 21.4921 16.0547C21.8671 16.4156 21.8952 16.4344 22.1108 16.5328C22.2093 16.5797 22.3124 16.6406 22.3452 16.6687C22.3733 16.6969 22.5327 16.7484 22.6968 16.7812C22.8608 16.8141 23.0014 16.8609 23.0155 16.8797C23.053 16.9359 24.3608 16.9781 24.8343 16.9359L25.2655 16.8937V22.2516V27.6094H19.453H13.6405V23.0672V18.525L13.4952 18.3797L13.3499 18.2344H10.078H6.80613L6.66082 18.3797L6.51551 18.525V23.0672V27.6094H5.62488H4.73426V22.2516V16.8937L5.1702 16.9359C5.63895 16.9781 6.94676 16.9359 6.98426 16.8797C6.99832 16.8609 7.13895 16.8141 7.30301 16.7812C7.46707 16.7484 7.62645 16.6969 7.65457 16.6687C7.68738 16.6406 7.79051 16.5797 7.88895 16.5328C8.10457 16.4344 8.1327 16.4156 8.5077 16.0547C8.66707 15.9 8.81238 15.7359 8.82645 15.6891C8.8452 15.6469 8.87801 15.6094 8.90613 15.6094C8.93426 15.6094 8.96707 15.6469 8.98582 15.6891ZM12.6093 23.4375V27.6094H10.078H7.54676V23.4375V19.2656H10.078H12.6093V23.4375Z"/>
</mask>
<path d="M8.53582 1.50469L8.39051 1.65V3.84844V6.04688H6.1827H3.97488L3.83426 6.1875C3.7077 6.31406 3.68895 6.38437 3.62332 6.83437C3.58113 7.11094 3.53426 7.34531 3.51551 7.35938C3.49676 7.37344 3.4452 7.64531 3.39832 7.96875C3.35145 8.29219 3.29988 8.56406 3.28582 8.57812C3.26707 8.59219 3.21082 8.86406 3.16395 9.1875C3.11707 9.51094 3.06551 9.79219 3.04676 9.82031C3.02801 9.84375 2.97645 10.1109 2.93426 10.4062C2.88738 10.7016 2.83113 10.9875 2.81238 11.0391C2.78895 11.0906 2.73738 11.3625 2.6952 11.6484C2.65301 11.9297 2.60145 12.1969 2.5827 12.2344C2.55926 12.2719 2.5077 12.5578 2.46082 12.8672C2.41395 13.1766 2.36238 13.4484 2.33895 13.4719C2.28738 13.5328 2.2827 14.4844 2.33426 14.4844C2.3577 14.4844 2.39988 14.6203 2.4327 14.7891C2.46551 14.9578 2.51707 15.1219 2.54988 15.1547C2.57801 15.1875 2.63895 15.2906 2.68582 15.3891C2.77957 15.6 2.79832 15.6187 3.16395 16.0125C3.31863 16.1766 3.46863 16.3125 3.49207 16.3125C3.5202 16.3125 3.57645 16.3547 3.62332 16.4062C3.69832 16.4953 3.70301 16.8891 3.70301 22.425V28.35L3.84832 28.4953L3.99363 28.6406H14.9999H26.0061L26.1514 28.4953L26.2968 28.35V22.425C26.2968 16.8891 26.3014 16.4953 26.3764 16.4062C26.4233 16.3547 26.4796 16.3125 26.5077 16.3125C26.5311 16.3125 26.6811 16.1766 26.8358 16.0125C27.2014 15.6187 27.2202 15.6 27.3139 15.3891C27.3608 15.2906 27.4218 15.1875 27.4499 15.1547C27.4827 15.1219 27.5343 14.9578 27.5671 14.7891C27.5999 14.6203 27.6421 14.4844 27.6655 14.4844C27.6843 14.4844 27.703 14.25 27.703 13.9687C27.703 13.6828 27.6843 13.4531 27.6655 13.4531C27.6421 13.4531 27.5858 13.1859 27.5389 12.8531C27.4968 12.525 27.4405 12.2484 27.4264 12.2344C27.4077 12.2203 27.3514 11.9484 27.3046 11.625C27.2577 11.3016 27.2061 11.0156 27.1874 10.9922C27.1686 10.9641 27.1171 10.7016 27.0749 10.4062C27.028 10.1109 26.9764 9.83437 26.9577 9.79688C26.9343 9.75937 26.8827 9.47344 26.8358 9.16406C26.7889 8.85469 26.7374 8.59219 26.7186 8.57812C26.7046 8.56406 26.6483 8.29219 26.6014 7.96875C26.5546 7.64531 26.503 7.37344 26.4843 7.35938C26.4655 7.34531 26.4186 7.11094 26.3764 6.83437C26.3108 6.38437 26.2921 6.31406 26.1655 6.1875L26.0249 6.04688H23.8171H21.6093V3.84844V1.65L21.4639 1.50469L21.3186 1.35937H14.9999H8.68113L8.53582 1.50469ZM20.578 6.5625V10.7344H14.9999H9.42176V6.5625V2.39062H14.9999H20.578V6.5625ZM8.37645 10.6734C8.36238 14.2219 8.34832 14.5641 8.2077 14.6719C8.19363 14.6859 8.13738 14.7797 8.08582 14.8781C7.96395 15.1172 7.61707 15.4641 7.37801 15.5859C7.27957 15.6375 7.18582 15.6937 7.17176 15.7078C7.0077 15.9187 4.71082 15.9187 4.54676 15.7078C4.5327 15.6937 4.43895 15.6375 4.34051 15.5859C4.10145 15.4641 3.75457 15.1172 3.6327 14.8781C3.58113 14.7797 3.52488 14.6859 3.51082 14.6719C3.44988 14.625 3.37488 14.2734 3.37488 14.0484C3.37488 13.7719 3.45926 13.1812 3.51551 13.0547C3.53895 13.0031 3.59051 12.7266 3.6327 12.4453C3.67488 12.1594 3.72645 11.8875 3.74988 11.8359C3.77332 11.7844 3.82957 11.4984 3.87176 11.2031C3.91395 10.9078 3.96551 10.6406 3.98426 10.6172C4.00301 10.5891 4.05457 10.3172 4.10145 10.0078C4.14832 9.69844 4.19988 9.42188 4.21863 9.39844C4.23738 9.37031 4.29363 9.08906 4.34051 8.76562C4.38738 8.44219 4.43895 8.17031 4.45301 8.15625C4.47176 8.14219 4.50926 7.96406 4.54207 7.75781C4.57488 7.55156 4.61238 7.3125 4.62645 7.22812L4.64988 7.07812H6.52488H8.3952L8.37645 10.6734ZM25.3733 7.22812C25.3874 7.3125 25.4249 7.55156 25.4577 7.75781C25.4905 7.96406 25.528 8.14219 25.5468 8.15625C25.5608 8.17031 25.6124 8.44219 25.6593 8.76562C25.7061 9.08906 25.7624 9.37031 25.7811 9.39844C25.7999 9.42188 25.8514 9.69844 25.8983 10.0078C25.9452 10.3172 25.9968 10.5891 26.0155 10.6172C26.0343 10.6406 26.0858 10.9078 26.128 11.2031C26.1702 11.4984 26.2264 11.7844 26.2499 11.8359C26.2733 11.8875 26.3249 12.1594 26.3671 12.4453C26.4093 12.7266 26.4608 13.0031 26.4843 13.0547C26.5405 13.1812 26.6249 13.7719 26.6249 14.0484C26.6249 14.2734 26.5499 14.625 26.4889 14.6719C26.4749 14.6859 26.4186 14.7797 26.3671 14.8781C26.2452 15.1172 25.8983 15.4641 25.6593 15.5859C25.5608 15.6375 25.4671 15.6937 25.453 15.7078C25.2655 15.9234 22.9921 15.9234 22.828 15.7078C22.8139 15.6937 22.7202 15.6375 22.6218 15.5859C22.3827 15.4641 22.0358 15.1172 21.9139 14.8781C21.8624 14.7797 21.8061 14.6859 21.7921 14.6719C21.6514 14.5641 21.6374 14.2219 21.6233 10.6734L21.6046 7.07812H23.4749H25.3499L25.3733 7.22812ZM14.4702 13.0172C14.4468 14.1656 14.4046 14.5922 14.3014 14.6719C14.2874 14.6859 14.2311 14.7797 14.1796 14.8781C14.0577 15.1172 13.7108 15.4641 13.4718 15.5859C13.3733 15.6375 13.2796 15.6937 13.2655 15.7078C13.1858 15.8109 12.7546 15.8625 11.953 15.8625C11.1514 15.8625 10.7202 15.8109 10.6405 15.7078C10.6264 15.6937 10.5327 15.6375 10.4343 15.5859C10.1952 15.4641 9.84832 15.1172 9.72645 14.8781C9.67488 14.7797 9.61863 14.6859 9.60457 14.6719C9.50145 14.5922 9.45926 14.1656 9.43582 13.0172L9.41238 11.7656H11.953H14.4936L14.4702 13.0172ZM20.5639 13.0172C20.5405 14.1656 20.4983 14.5922 20.3952 14.6719C20.3811 14.6859 20.3249 14.7797 20.2733 14.8781C20.1514 15.1172 19.8046 15.4641 19.5655 15.5859C19.4671 15.6375 19.3733 15.6937 19.3593 15.7078C19.2796 15.8109 18.8483 15.8625 18.0468 15.8625C17.2452 15.8625 16.8139 15.8109 16.7343 15.7078C16.7202 15.6937 16.6264 15.6375 16.528 15.5859C16.2889 15.4641 15.9421 15.1172 15.8202 14.8781C15.7686 14.7797 15.7124 14.6859 15.6983 14.6719C15.5952 14.5922 15.553 14.1656 15.5296 13.0172L15.5061 11.7656H18.0468H20.5874L20.5639 13.0172ZM8.98582 15.6891C8.99988 15.7359 9.1452 15.9 9.30457 16.0547C9.67957 16.4156 9.7077 16.4344 9.92332 16.5328C10.0218 16.5797 10.1249 16.6406 10.1577 16.6687C10.1905 16.7016 10.3546 16.7531 10.5233 16.7859C10.6921 16.8187 10.828 16.8609 10.828 16.8844C10.828 16.9031 11.3343 16.9219 11.953 16.9219C12.5718 16.9219 13.078 16.9031 13.078 16.8844C13.078 16.8609 13.2139 16.8187 13.3827 16.7859C13.5514 16.7531 13.7155 16.7016 13.7483 16.6687C13.7811 16.6406 13.8843 16.5797 13.9827 16.5328C14.1983 16.4344 14.2264 16.4156 14.6014 16.0547C14.7608 15.9 14.9061 15.7359 14.9202 15.6891C14.9389 15.6469 14.9718 15.6094 14.9999 15.6094C15.028 15.6094 15.0608 15.6469 15.0796 15.6891C15.0936 15.7359 15.2389 15.9 15.3983 16.0547C15.7733 16.4156 15.8014 16.4344 16.0171 16.5328C16.1155 16.5797 16.2186 16.6406 16.2514 16.6687C16.2843 16.7016 16.4483 16.7531 16.6171 16.7859C16.7858 16.8187 16.9218 16.8609 16.9218 16.8844C16.9218 16.9031 17.428 16.9219 18.0468 16.9219C18.6655 16.9219 19.1718 16.9031 19.1718 16.8844C19.1718 16.8609 19.3077 16.8187 19.4764 16.7859C19.6452 16.7531 19.8093 16.7016 19.8421 16.6687C19.8749 16.6406 19.978 16.5797 20.0764 16.5328C20.2921 16.4344 20.3202 16.4156 20.6952 16.0547C20.8546 15.9 20.9999 15.7359 21.0139 15.6891C21.0327 15.6469 21.0655 15.6094 21.0936 15.6094C21.1218 15.6094 21.1546 15.6469 21.1733 15.6891C21.1874 15.7359 21.3327 15.9 21.4921 16.0547C21.8671 16.4156 21.8952 16.4344 22.1108 16.5328C22.2093 16.5797 22.3124 16.6406 22.3452 16.6687C22.3733 16.6969 22.5327 16.7484 22.6968 16.7812C22.8608 16.8141 23.0014 16.8609 23.0155 16.8797C23.053 16.9359 24.3608 16.9781 24.8343 16.9359L25.2655 16.8937V22.2516V27.6094H19.453H13.6405V23.0672V18.525L13.4952 18.3797L13.3499 18.2344H10.078H6.80613L6.66082 18.3797L6.51551 18.525V23.0672V27.6094H5.62488H4.73426V22.2516V16.8937L5.1702 16.9359C5.63895 16.9781 6.94676 16.9359 6.98426 16.8797C6.99832 16.8609 7.13895 16.8141 7.30301 16.7812C7.46707 16.7484 7.62645 16.6969 7.65457 16.6687C7.68738 16.6406 7.79051 16.5797 7.88895 16.5328C8.10457 16.4344 8.1327 16.4156 8.5077 16.0547C8.66707 15.9 8.81238 15.7359 8.82645 15.6891C8.8452 15.6469 8.87801 15.6094 8.90613 15.6094C8.93426 15.6094 8.96707 15.6469 8.98582 15.6891ZM12.6093 23.4375V27.6094H10.078H7.54676V23.4375V19.2656H10.078H12.6093V23.4375Z" fill="#000040" stroke="#000040" stroke-width="0.2" mask="url(#path-1-inside-1_3587_5474)"/>
<path d="M16.4031 4.31719V3.54571L16.2725 3.41504L16.1418 3.28437H15H13.8582L13.7275 3.41504L13.5969 3.54571V4.31719V5.10938V5.15938H13.5469H12.7547H11.9832L11.8525 5.29004L11.7219 5.42071V6.5625V7.70429L11.8525 7.83496L11.9832 7.96562H12.7547H13.5469H13.5969V8.01562V8.80781V9.57929L13.7275 9.70996L13.8582 9.84062H15H16.1418L16.2725 9.70996L16.4031 9.57929V8.80781V8.01562V7.96562H16.4531H17.2453H18.0168L18.1475 7.83496L18.2781 7.70429V6.5625V5.42071L18.1475 5.29004L18.0168 5.15938H17.2453H16.4531H16.4031V5.10938V4.31719ZM14.5281 8.06719V7.29571L14.3975 7.16504L14.2668 7.03437H13.4953H12.7031H12.6531V6.98438V6.5625V6.14062V6.09062H12.7031H13.4953H14.2668L14.3975 5.95996L14.5281 5.82929V5.05781V4.26562V4.21562H14.5781H15H15.4219H15.4719V4.26562V5.05781V5.82929L15.6025 5.95996L15.7332 6.09062H16.5047H17.2969H17.3469V6.14062V6.5625V6.98438V7.03437H17.2969H16.5047H15.7332L15.6025 7.16504L15.4719 7.29571V8.06719V8.85938V8.90938H15.4219H15H14.5781H14.5281V8.85938V8.06719Z" fill="#000040" stroke="#000040" stroke-width="0.1"/>
<path d="M15.5672 18.3797L15.4219 18.525V21.3281V24.1312L15.5672 24.2766L15.7125 24.4219H19.2188H22.725L22.8703 24.2766L23.0156 24.1312V21.3281V18.525L22.8703 18.3797L22.725 18.2344H19.2188H15.7125L15.5672 18.3797ZM21.9844 21.3281V23.3906H19.2188H16.4531V21.3281V19.2656H19.2188H21.9844V21.3281Z" fill="#000040"/>
</svg>
