<svg width="44" height="46" viewBox="0 0 44 46" fill="none" xmlns="http://www.w3.org/2000/svg">
<mask id="path-1-inside-1_3587_6357" fill="white">
<path d="M11.2267 0.507812L10.9845 0.75V4.41406V8.07812H7.30482H3.62513L3.39076 8.3125C3.17982 8.52344 3.14857 8.64062 3.0392 9.39062C2.96888 9.85156 2.89076 10.2422 2.85951 10.2656C2.82826 10.2891 2.74232 10.7422 2.6642 11.2812C2.58607 11.8203 2.50013 12.2734 2.4767 12.2969C2.44545 12.3203 2.3517 12.7734 2.27357 13.3125C2.19545 13.8516 2.10951 14.3203 2.07826 14.3672C2.04701 14.4062 1.96107 14.8516 1.89076 15.3438C1.81263 15.8359 1.71888 16.3125 1.68763 16.3984C1.64857 16.4844 1.56263 16.9375 1.49232 17.4141C1.42201 17.8828 1.33607 18.3281 1.30482 18.3906C1.26576 18.4531 1.17982 18.9297 1.1017 19.4453C1.02357 19.9609 0.937633 20.4141 0.89857 20.4531C0.812633 20.5547 0.80482 22.1406 0.890758 22.1406C0.92982 22.1406 1.00013 22.3672 1.05482 22.6484C1.10951 22.9297 1.19545 23.2031 1.25013 23.2578C1.29701 23.3125 1.39857 23.4844 1.4767 23.6484C1.63295 24 1.6642 24.0312 2.27357 24.6875C2.53138 24.9609 2.78138 25.1875 2.82045 25.1875C2.86732 25.1875 2.96107 25.2578 3.0392 25.3438C3.1642 25.4922 3.17201 26.1484 3.17201 35.375V45.25L3.4142 45.4922L3.65638 45.7344H22.0001H40.3439L40.5861 45.4922L40.8283 45.25V35.375C40.8283 26.1484 40.8361 25.4922 40.9611 25.3438C41.0392 25.2578 41.1329 25.1875 41.1798 25.1875C41.2189 25.1875 41.4689 24.9609 41.7267 24.6875C42.3361 24.0312 42.3673 24 42.5236 23.6484C42.6017 23.4844 42.7033 23.3125 42.7501 23.2578C42.8048 23.2031 42.8908 22.9297 42.9454 22.6484C43.0001 22.3672 43.0704 22.1406 43.1095 22.1406C43.1408 22.1406 43.172 21.75 43.172 21.2812C43.172 20.8047 43.1408 20.4219 43.1095 20.4219C43.0704 20.4219 42.9767 19.9766 42.8986 19.4219C42.8283 18.875 42.7345 18.4141 42.7111 18.3906C42.6798 18.3672 42.5861 17.9141 42.5079 17.375C42.4298 16.8359 42.3439 16.3594 42.3126 16.3203C42.2814 16.2734 42.1954 15.8359 42.1251 15.3438C42.047 14.8516 41.9611 14.3906 41.9298 14.3281C41.8908 14.2656 41.8048 13.7891 41.7267 13.2734C41.6486 12.7578 41.5626 12.3203 41.5314 12.2969C41.5079 12.2734 41.4142 11.8203 41.3361 11.2812C41.2579 10.7422 41.172 10.2891 41.1408 10.2656C41.1095 10.2422 41.0314 9.85156 40.9611 9.39062C40.8517 8.64062 40.8204 8.52344 40.6095 8.3125L40.3751 8.07812H36.6954H33.0158V4.41406V0.75L32.7736 0.507812L32.5314 0.265625H22.0001H11.4689L11.2267 0.507812ZM31.297 8.9375V15.8906H22.0001H12.7033V8.9375V1.98438H22.0001H31.297V8.9375ZM10.9611 15.7891C10.9376 21.7031 10.9142 22.2734 10.6798 22.4531C10.6564 22.4766 10.5626 22.6328 10.4767 22.7969C10.2736 23.1953 9.69545 23.7734 9.29701 23.9766C9.13295 24.0625 8.9767 24.1562 8.95326 24.1797C8.67982 24.5312 4.8517 24.5312 4.57826 24.1797C4.55482 24.1562 4.39857 24.0625 4.23451 23.9766C3.83607 23.7734 3.25795 23.1953 3.05482 22.7969C2.96888 22.6328 2.87513 22.4766 2.8517 22.4531C2.75013 22.375 2.62513 21.7891 2.62513 21.4141C2.62513 20.9531 2.76576 19.9688 2.85951 19.7578C2.89857 19.6719 2.98451 19.2109 3.05482 18.7422C3.12513 18.2656 3.21107 17.8125 3.25013 17.7266C3.2892 17.6406 3.38295 17.1641 3.45326 16.6719C3.52357 16.1797 3.60951 15.7344 3.64076 15.6953C3.67201 15.6484 3.75795 15.1953 3.83607 14.6797C3.9142 14.1641 4.00013 13.7031 4.03138 13.6641C4.06263 13.6172 4.15638 13.1484 4.23451 12.6094C4.31263 12.0703 4.39857 11.6172 4.42201 11.5938C4.45326 11.5703 4.51576 11.2734 4.57045 10.9297C4.62513 10.5859 4.68763 10.1875 4.71107 10.0469L4.75013 9.79688H7.87513H10.9923L10.9611 15.7891ZM39.2892 10.0469C39.3126 10.1875 39.3751 10.5859 39.4298 10.9297C39.4845 11.2734 39.547 11.5703 39.5783 11.5938C39.6017 11.6172 39.6876 12.0703 39.7658 12.6094C39.8439 13.1484 39.9376 13.6172 39.9689 13.6641C40.0001 13.7031 40.0861 14.1641 40.1642 14.6797C40.2423 15.1953 40.3283 15.6484 40.3595 15.6953C40.3908 15.7344 40.4767 16.1797 40.547 16.6719C40.6173 17.1641 40.7111 17.6406 40.7501 17.7266C40.7892 17.8125 40.8751 18.2656 40.9454 18.7422C41.0158 19.2109 41.1017 19.6719 41.1408 19.7578C41.2345 19.9688 41.3751 20.9531 41.3751 21.4141C41.3751 21.7891 41.2501 22.375 41.1486 22.4531C41.1251 22.4766 41.0314 22.6328 40.9454 22.7969C40.7423 23.1953 40.1642 23.7734 39.7658 23.9766C39.6017 24.0625 39.4454 24.1562 39.422 24.1797C39.1095 24.5391 35.3204 24.5391 35.047 24.1797C35.0236 24.1562 34.8673 24.0625 34.7033 23.9766C34.3048 23.7734 33.7267 23.1953 33.5236 22.7969C33.4376 22.6328 33.3439 22.4766 33.3204 22.4531C33.0861 22.2734 33.0626 21.7031 33.0392 15.7891L33.0079 9.79688H36.1251H39.2501L39.2892 10.0469ZM21.1173 19.6953C21.0783 21.6094 21.0079 22.3203 20.8361 22.4531C20.8126 22.4766 20.7189 22.6328 20.6329 22.7969C20.4298 23.1953 19.8517 23.7734 19.4533 23.9766C19.2892 24.0625 19.1329 24.1562 19.1095 24.1797C18.9767 24.3516 18.2579 24.4375 16.922 24.4375C15.5861 24.4375 14.8673 24.3516 14.7345 24.1797C14.7111 24.1562 14.5548 24.0625 14.3908 23.9766C13.9923 23.7734 13.4142 23.1953 13.2111 22.7969C13.1251 22.6328 13.0314 22.4766 13.0079 22.4531C12.8361 22.3203 12.7658 21.6094 12.7267 19.6953L12.6876 17.6094H16.922H21.1564L21.1173 19.6953ZM31.2736 19.6953C31.2345 21.6094 31.1642 22.3203 30.9923 22.4531C30.9689 22.4766 30.8751 22.6328 30.7892 22.7969C30.5861 23.1953 30.0079 23.7734 29.6095 23.9766C29.4454 24.0625 29.2892 24.1562 29.2658 24.1797C29.1329 24.3516 28.4142 24.4375 27.0783 24.4375C25.7423 24.4375 25.0236 24.3516 24.8908 24.1797C24.8673 24.1562 24.7111 24.0625 24.547 23.9766C24.1486 23.7734 23.5704 23.1953 23.3673 22.7969C23.2814 22.6328 23.1876 22.4766 23.1642 22.4531C22.9923 22.3203 22.922 21.6094 22.8829 19.6953L22.8439 17.6094H27.0783H31.3126L31.2736 19.6953ZM11.9767 24.1484C12.0001 24.2266 12.2423 24.5 12.5079 24.7578C13.1329 25.3594 13.1798 25.3906 13.5392 25.5547C13.7033 25.6328 13.8751 25.7344 13.9298 25.7812C13.9845 25.8359 14.2579 25.9219 14.5392 25.9766C14.8204 26.0312 15.047 26.1016 15.047 26.1406C15.047 26.1719 15.8908 26.2031 16.922 26.2031C17.9533 26.2031 18.797 26.1719 18.797 26.1406C18.797 26.1016 19.0236 26.0312 19.3048 25.9766C19.5861 25.9219 19.8595 25.8359 19.9142 25.7812C19.9689 25.7344 20.1408 25.6328 20.3048 25.5547C20.6642 25.3906 20.7111 25.3594 21.3361 24.7578C21.6017 24.5 21.8439 24.2266 21.8673 24.1484C21.8986 24.0781 21.9533 24.0156 22.0001 24.0156C22.047 24.0156 22.1017 24.0781 22.1329 24.1484C22.1564 24.2266 22.3986 24.5 22.6642 24.7578C23.2892 25.3594 23.3361 25.3906 23.6954 25.5547C23.8595 25.6328 24.0314 25.7344 24.0861 25.7812C24.1408 25.8359 24.4142 25.9219 24.6954 25.9766C24.9767 26.0312 25.2033 26.1016 25.2033 26.1406C25.2033 26.1719 26.047 26.2031 27.0783 26.2031C28.1095 26.2031 28.9533 26.1719 28.9533 26.1406C28.9533 26.1016 29.1798 26.0312 29.4611 25.9766C29.7423 25.9219 30.0158 25.8359 30.0704 25.7812C30.1251 25.7344 30.297 25.6328 30.4611 25.5547C30.8204 25.3906 30.8673 25.3594 31.4923 24.7578C31.7579 24.5 32.0001 24.2266 32.0236 24.1484C32.0548 24.0781 32.1095 24.0156 32.1564 24.0156C32.2033 24.0156 32.2579 24.0781 32.2892 24.1484C32.3126 24.2266 32.5548 24.5 32.8204 24.7578C33.4454 25.3594 33.4923 25.3906 33.8517 25.5547C34.0158 25.6328 34.1876 25.7344 34.2423 25.7812C34.2892 25.8281 34.5548 25.9141 34.8283 25.9688C35.1017 26.0234 35.3361 26.1016 35.3595 26.1328C35.422 26.2266 37.6017 26.2969 38.3908 26.2266L39.1095 26.1562V35.0859V44.0156H29.422H19.7345V36.4453V28.875L19.4923 28.6328L19.2501 28.3906H13.797H8.34388L8.1017 28.6328L7.85951 28.875V36.4453V44.0156H6.37513H4.89076V35.0859V26.1562L5.61732 26.2266C6.39857 26.2969 8.57826 26.2266 8.64076 26.1328C8.6642 26.1016 8.89857 26.0234 9.17201 25.9688C9.44545 25.9141 9.71107 25.8281 9.75795 25.7812C9.81263 25.7344 9.98451 25.6328 10.1486 25.5547C10.5079 25.3906 10.5548 25.3594 11.1798 24.7578C11.4454 24.5 11.6876 24.2266 11.7111 24.1484C11.7423 24.0781 11.797 24.0156 11.8439 24.0156C11.8908 24.0156 11.9454 24.0781 11.9767 24.1484ZM18.0158 37.0625V44.0156H13.797H9.57826V37.0625V30.1094H13.797H18.0158V37.0625Z"/>
</mask>
<path d="M11.2267 0.507812L10.9845 0.75V4.41406V8.07812H7.30482H3.62513L3.39076 8.3125C3.17982 8.52344 3.14857 8.64062 3.0392 9.39062C2.96888 9.85156 2.89076 10.2422 2.85951 10.2656C2.82826 10.2891 2.74232 10.7422 2.6642 11.2812C2.58607 11.8203 2.50013 12.2734 2.4767 12.2969C2.44545 12.3203 2.3517 12.7734 2.27357 13.3125C2.19545 13.8516 2.10951 14.3203 2.07826 14.3672C2.04701 14.4062 1.96107 14.8516 1.89076 15.3438C1.81263 15.8359 1.71888 16.3125 1.68763 16.3984C1.64857 16.4844 1.56263 16.9375 1.49232 17.4141C1.42201 17.8828 1.33607 18.3281 1.30482 18.3906C1.26576 18.4531 1.17982 18.9297 1.1017 19.4453C1.02357 19.9609 0.937633 20.4141 0.89857 20.4531C0.812633 20.5547 0.80482 22.1406 0.890758 22.1406C0.92982 22.1406 1.00013 22.3672 1.05482 22.6484C1.10951 22.9297 1.19545 23.2031 1.25013 23.2578C1.29701 23.3125 1.39857 23.4844 1.4767 23.6484C1.63295 24 1.6642 24.0312 2.27357 24.6875C2.53138 24.9609 2.78138 25.1875 2.82045 25.1875C2.86732 25.1875 2.96107 25.2578 3.0392 25.3438C3.1642 25.4922 3.17201 26.1484 3.17201 35.375V45.25L3.4142 45.4922L3.65638 45.7344H22.0001H40.3439L40.5861 45.4922L40.8283 45.25V35.375C40.8283 26.1484 40.8361 25.4922 40.9611 25.3438C41.0392 25.2578 41.1329 25.1875 41.1798 25.1875C41.2189 25.1875 41.4689 24.9609 41.7267 24.6875C42.3361 24.0312 42.3673 24 42.5236 23.6484C42.6017 23.4844 42.7033 23.3125 42.7501 23.2578C42.8048 23.2031 42.8908 22.9297 42.9454 22.6484C43.0001 22.3672 43.0704 22.1406 43.1095 22.1406C43.1408 22.1406 43.172 21.75 43.172 21.2812C43.172 20.8047 43.1408 20.4219 43.1095 20.4219C43.0704 20.4219 42.9767 19.9766 42.8986 19.4219C42.8283 18.875 42.7345 18.4141 42.7111 18.3906C42.6798 18.3672 42.5861 17.9141 42.5079 17.375C42.4298 16.8359 42.3439 16.3594 42.3126 16.3203C42.2814 16.2734 42.1954 15.8359 42.1251 15.3438C42.047 14.8516 41.9611 14.3906 41.9298 14.3281C41.8908 14.2656 41.8048 13.7891 41.7267 13.2734C41.6486 12.7578 41.5626 12.3203 41.5314 12.2969C41.5079 12.2734 41.4142 11.8203 41.3361 11.2812C41.2579 10.7422 41.172 10.2891 41.1408 10.2656C41.1095 10.2422 41.0314 9.85156 40.9611 9.39062C40.8517 8.64062 40.8204 8.52344 40.6095 8.3125L40.3751 8.07812H36.6954H33.0158V4.41406V0.75L32.7736 0.507812L32.5314 0.265625H22.0001H11.4689L11.2267 0.507812ZM31.297 8.9375V15.8906H22.0001H12.7033V8.9375V1.98438H22.0001H31.297V8.9375ZM10.9611 15.7891C10.9376 21.7031 10.9142 22.2734 10.6798 22.4531C10.6564 22.4766 10.5626 22.6328 10.4767 22.7969C10.2736 23.1953 9.69545 23.7734 9.29701 23.9766C9.13295 24.0625 8.9767 24.1562 8.95326 24.1797C8.67982 24.5312 4.8517 24.5312 4.57826 24.1797C4.55482 24.1562 4.39857 24.0625 4.23451 23.9766C3.83607 23.7734 3.25795 23.1953 3.05482 22.7969C2.96888 22.6328 2.87513 22.4766 2.8517 22.4531C2.75013 22.375 2.62513 21.7891 2.62513 21.4141C2.62513 20.9531 2.76576 19.9688 2.85951 19.7578C2.89857 19.6719 2.98451 19.2109 3.05482 18.7422C3.12513 18.2656 3.21107 17.8125 3.25013 17.7266C3.2892 17.6406 3.38295 17.1641 3.45326 16.6719C3.52357 16.1797 3.60951 15.7344 3.64076 15.6953C3.67201 15.6484 3.75795 15.1953 3.83607 14.6797C3.9142 14.1641 4.00013 13.7031 4.03138 13.6641C4.06263 13.6172 4.15638 13.1484 4.23451 12.6094C4.31263 12.0703 4.39857 11.6172 4.42201 11.5938C4.45326 11.5703 4.51576 11.2734 4.57045 10.9297C4.62513 10.5859 4.68763 10.1875 4.71107 10.0469L4.75013 9.79688H7.87513H10.9923L10.9611 15.7891ZM39.2892 10.0469C39.3126 10.1875 39.3751 10.5859 39.4298 10.9297C39.4845 11.2734 39.547 11.5703 39.5783 11.5938C39.6017 11.6172 39.6876 12.0703 39.7658 12.6094C39.8439 13.1484 39.9376 13.6172 39.9689 13.6641C40.0001 13.7031 40.0861 14.1641 40.1642 14.6797C40.2423 15.1953 40.3283 15.6484 40.3595 15.6953C40.3908 15.7344 40.4767 16.1797 40.547 16.6719C40.6173 17.1641 40.7111 17.6406 40.7501 17.7266C40.7892 17.8125 40.8751 18.2656 40.9454 18.7422C41.0158 19.2109 41.1017 19.6719 41.1408 19.7578C41.2345 19.9688 41.3751 20.9531 41.3751 21.4141C41.3751 21.7891 41.2501 22.375 41.1486 22.4531C41.1251 22.4766 41.0314 22.6328 40.9454 22.7969C40.7423 23.1953 40.1642 23.7734 39.7658 23.9766C39.6017 24.0625 39.4454 24.1562 39.422 24.1797C39.1095 24.5391 35.3204 24.5391 35.047 24.1797C35.0236 24.1562 34.8673 24.0625 34.7033 23.9766C34.3048 23.7734 33.7267 23.1953 33.5236 22.7969C33.4376 22.6328 33.3439 22.4766 33.3204 22.4531C33.0861 22.2734 33.0626 21.7031 33.0392 15.7891L33.0079 9.79688H36.1251H39.2501L39.2892 10.0469ZM21.1173 19.6953C21.0783 21.6094 21.0079 22.3203 20.8361 22.4531C20.8126 22.4766 20.7189 22.6328 20.6329 22.7969C20.4298 23.1953 19.8517 23.7734 19.4533 23.9766C19.2892 24.0625 19.1329 24.1562 19.1095 24.1797C18.9767 24.3516 18.2579 24.4375 16.922 24.4375C15.5861 24.4375 14.8673 24.3516 14.7345 24.1797C14.7111 24.1562 14.5548 24.0625 14.3908 23.9766C13.9923 23.7734 13.4142 23.1953 13.2111 22.7969C13.1251 22.6328 13.0314 22.4766 13.0079 22.4531C12.8361 22.3203 12.7658 21.6094 12.7267 19.6953L12.6876 17.6094H16.922H21.1564L21.1173 19.6953ZM31.2736 19.6953C31.2345 21.6094 31.1642 22.3203 30.9923 22.4531C30.9689 22.4766 30.8751 22.6328 30.7892 22.7969C30.5861 23.1953 30.0079 23.7734 29.6095 23.9766C29.4454 24.0625 29.2892 24.1562 29.2658 24.1797C29.1329 24.3516 28.4142 24.4375 27.0783 24.4375C25.7423 24.4375 25.0236 24.3516 24.8908 24.1797C24.8673 24.1562 24.7111 24.0625 24.547 23.9766C24.1486 23.7734 23.5704 23.1953 23.3673 22.7969C23.2814 22.6328 23.1876 22.4766 23.1642 22.4531C22.9923 22.3203 22.922 21.6094 22.8829 19.6953L22.8439 17.6094H27.0783H31.3126L31.2736 19.6953ZM11.9767 24.1484C12.0001 24.2266 12.2423 24.5 12.5079 24.7578C13.1329 25.3594 13.1798 25.3906 13.5392 25.5547C13.7033 25.6328 13.8751 25.7344 13.9298 25.7812C13.9845 25.8359 14.2579 25.9219 14.5392 25.9766C14.8204 26.0312 15.047 26.1016 15.047 26.1406C15.047 26.1719 15.8908 26.2031 16.922 26.2031C17.9533 26.2031 18.797 26.1719 18.797 26.1406C18.797 26.1016 19.0236 26.0312 19.3048 25.9766C19.5861 25.9219 19.8595 25.8359 19.9142 25.7812C19.9689 25.7344 20.1408 25.6328 20.3048 25.5547C20.6642 25.3906 20.7111 25.3594 21.3361 24.7578C21.6017 24.5 21.8439 24.2266 21.8673 24.1484C21.8986 24.0781 21.9533 24.0156 22.0001 24.0156C22.047 24.0156 22.1017 24.0781 22.1329 24.1484C22.1564 24.2266 22.3986 24.5 22.6642 24.7578C23.2892 25.3594 23.3361 25.3906 23.6954 25.5547C23.8595 25.6328 24.0314 25.7344 24.0861 25.7812C24.1408 25.8359 24.4142 25.9219 24.6954 25.9766C24.9767 26.0312 25.2033 26.1016 25.2033 26.1406C25.2033 26.1719 26.047 26.2031 27.0783 26.2031C28.1095 26.2031 28.9533 26.1719 28.9533 26.1406C28.9533 26.1016 29.1798 26.0312 29.4611 25.9766C29.7423 25.9219 30.0158 25.8359 30.0704 25.7812C30.1251 25.7344 30.297 25.6328 30.4611 25.5547C30.8204 25.3906 30.8673 25.3594 31.4923 24.7578C31.7579 24.5 32.0001 24.2266 32.0236 24.1484C32.0548 24.0781 32.1095 24.0156 32.1564 24.0156C32.2033 24.0156 32.2579 24.0781 32.2892 24.1484C32.3126 24.2266 32.5548 24.5 32.8204 24.7578C33.4454 25.3594 33.4923 25.3906 33.8517 25.5547C34.0158 25.6328 34.1876 25.7344 34.2423 25.7812C34.2892 25.8281 34.5548 25.9141 34.8283 25.9688C35.1017 26.0234 35.3361 26.1016 35.3595 26.1328C35.422 26.2266 37.6017 26.2969 38.3908 26.2266L39.1095 26.1562V35.0859V44.0156H29.422H19.7345V36.4453V28.875L19.4923 28.6328L19.2501 28.3906H13.797H8.34388L8.1017 28.6328L7.85951 28.875V36.4453V44.0156H6.37513H4.89076V35.0859V26.1562L5.61732 26.2266C6.39857 26.2969 8.57826 26.2266 8.64076 26.1328C8.6642 26.1016 8.89857 26.0234 9.17201 25.9688C9.44545 25.9141 9.71107 25.8281 9.75795 25.7812C9.81263 25.7344 9.98451 25.6328 10.1486 25.5547C10.5079 25.3906 10.5548 25.3594 11.1798 24.7578C11.4454 24.5 11.6876 24.2266 11.7111 24.1484C11.7423 24.0781 11.797 24.0156 11.8439 24.0156C11.8908 24.0156 11.9454 24.0781 11.9767 24.1484ZM18.0158 37.0625V44.0156H13.797H9.57826V37.0625V30.1094H13.797H18.0158V37.0625Z" fill="#000040" stroke="#000040" stroke-width="10" mask="url(#path-1-inside-1_3587_6357)"/>
<mask id="path-2-inside-2_3587_6357" fill="white">
<path d="M19.8203 3.63281L19.5781 3.875V5.19531V6.51562H18.2578H16.9375L16.6953 6.75781L16.4531 7V8.9375V10.875L16.6953 11.1172L16.9375 11.3594H18.2578H19.5781V12.6797V14L19.8203 14.2422L20.0625 14.4844H22H23.9375L24.1797 14.2422L24.4219 14V12.6797V11.3594H25.7422H27.0625L27.3047 11.1172L27.5469 10.875V8.9375V7L27.3047 6.75781L27.0625 6.51562H25.7422H24.4219V5.19531V3.875L24.1797 3.63281L23.9375 3.39062H22H20.0625L19.8203 3.63281ZM22.7031 6.42969V7.75L22.9453 7.99219L23.1875 8.23438H24.5078H25.8281V8.9375V9.64062H24.5078H23.1875L22.9453 9.88281L22.7031 10.125V11.4453V12.7656H22H21.2969V11.4453V10.125L21.0547 9.88281L20.8125 9.64062H19.4922H18.1719V8.9375V8.23438H19.4922H20.8125L21.0547 7.99219L21.2969 7.75V6.42969V5.10938H22H22.7031V6.42969Z"/>
</mask>
<path d="M19.8203 3.63281L19.5781 3.875V5.19531V6.51562H18.2578H16.9375L16.6953 6.75781L16.4531 7V8.9375V10.875L16.6953 11.1172L16.9375 11.3594H18.2578H19.5781V12.6797V14L19.8203 14.2422L20.0625 14.4844H22H23.9375L24.1797 14.2422L24.4219 14V12.6797V11.3594H25.7422H27.0625L27.3047 11.1172L27.5469 10.875V8.9375V7L27.3047 6.75781L27.0625 6.51562H25.7422H24.4219V5.19531V3.875L24.1797 3.63281L23.9375 3.39062H22H20.0625L19.8203 3.63281ZM22.7031 6.42969V7.75L22.9453 7.99219L23.1875 8.23438H24.5078H25.8281V8.9375V9.64062H24.5078H23.1875L22.9453 9.88281L22.7031 10.125V11.4453V12.7656H22H21.2969V11.4453V10.125L21.0547 9.88281L20.8125 9.64062H19.4922H18.1719V8.9375V8.23438H19.4922H20.8125L21.0547 7.99219L21.2969 7.75V6.42969V5.10938H22H22.7031V6.42969Z" fill="#000040"/>
<path d="M19.5781 3.875H14.5781V1.80393L16.0426 0.339466L19.5781 3.875ZM19.5781 6.51562H24.5781V11.5156H19.5781V6.51562ZM16.9375 6.51562L13.402 2.98009L14.8664 1.51562H16.9375V6.51562ZM16.4531 7H11.4531V4.92893L12.9176 3.46447L16.4531 7ZM16.4531 10.875L12.9176 14.4105L11.4531 12.9461V10.875H16.4531ZM16.9375 11.3594V16.3594H14.8664L13.402 14.8949L16.9375 11.3594ZM19.5781 11.3594V6.35938H24.5781V11.3594H19.5781ZM19.5781 14L16.0426 17.5355L14.5781 16.0711V14H19.5781ZM20.0625 14.4844V19.4844H17.9914L16.527 18.0199L20.0625 14.4844ZM23.9375 14.4844L27.473 18.0199L26.0086 19.4844H23.9375V14.4844ZM24.4219 14H29.4219V16.0711L27.9574 17.5355L24.4219 14ZM24.4219 11.3594H19.4219V6.35938H24.4219V11.3594ZM27.0625 11.3594L30.598 14.8949L29.1336 16.3594H27.0625V11.3594ZM27.5469 10.875H32.5469V12.9461L31.0824 14.4105L27.5469 10.875ZM27.5469 7L31.0824 3.46447L32.5469 4.92893V7H27.5469ZM27.0625 6.51562V1.51562H29.1336L30.598 2.98009L27.0625 6.51562ZM24.4219 6.51562V11.5156H19.4219V6.51562H24.4219ZM24.4219 3.875L27.9574 0.339466L29.4219 1.80393V3.875H24.4219ZM23.9375 3.39062V-1.60938H26.0086L27.473 -0.144909L23.9375 3.39062ZM20.0625 3.39062L16.527 -0.144909L17.9914 -1.60938H20.0625V3.39062ZM22.7031 7.75L19.1676 11.2855L17.7031 9.82107V7.75H22.7031ZM23.1875 8.23438V13.2344H21.1164L19.652 11.7699L23.1875 8.23438ZM25.8281 8.23438V3.23438H30.8281V8.23438H25.8281ZM25.8281 9.64062H30.8281V14.6406H25.8281V9.64062ZM23.1875 9.64062L19.652 6.10509L21.1164 4.64062H23.1875V9.64062ZM22.7031 10.125H17.7031V8.05393L19.1676 6.58947L22.7031 10.125ZM22.7031 12.7656H27.7031V17.7656H22.7031V12.7656ZM21.2969 12.7656V17.7656H16.2969V12.7656H21.2969ZM21.2969 10.125L24.8324 6.58947L26.2969 8.05393V10.125H21.2969ZM20.8125 9.64062V4.64062H22.8836L24.348 6.10509L20.8125 9.64062ZM18.1719 9.64062V14.6406H13.1719V9.64062H18.1719ZM18.1719 8.23438H13.1719V3.23438H18.1719V8.23438ZM20.8125 8.23438L24.348 11.7699L22.8836 13.2344H20.8125V8.23438ZM21.2969 7.75H26.2969V9.82107L24.8324 11.2855L21.2969 7.75ZM21.2969 5.10938H16.2969V0.109375H21.2969V5.10938ZM22.7031 5.10938V0.109375H27.7031V5.10938H22.7031ZM23.3558 7.16835L23.1137 7.41053L16.0426 0.339466L16.2848 0.0972786L23.3558 7.16835ZM24.5781 3.875V5.19531H14.5781V3.875H24.5781ZM24.5781 5.19531V6.51562H14.5781V5.19531H24.5781ZM19.5781 11.5156H18.2578V1.51562H19.5781V11.5156ZM18.2578 11.5156H16.9375V1.51562H18.2578V11.5156ZM20.473 10.0512L20.2308 10.2933L13.1598 3.22228L13.402 2.98009L20.473 10.0512ZM20.2308 10.2933L19.9887 10.5355L12.9176 3.46447L13.1598 3.22228L20.2308 10.2933ZM21.4531 7V8.9375H11.4531V7H21.4531ZM21.4531 8.9375V10.875H11.4531V8.9375H21.4531ZM19.9887 7.33947L20.2308 7.58165L13.1598 14.6527L12.9176 14.4105L19.9887 7.33947ZM20.2308 7.58165L20.473 7.82384L13.402 14.8949L13.1598 14.6527L20.2308 7.58165ZM16.9375 6.35938H18.2578V16.3594H16.9375V6.35938ZM18.2578 6.35938H19.5781V16.3594H18.2578V6.35938ZM24.5781 11.3594V12.6797H14.5781V11.3594H24.5781ZM24.5781 12.6797V14H14.5781V12.6797H24.5781ZM23.1137 10.4645L23.3558 10.7067L16.2848 17.7777L16.0426 17.5355L23.1137 10.4645ZM23.3558 10.7067L23.598 10.9488L16.527 18.0199L16.2848 17.7777L23.3558 10.7067ZM20.0625 9.48438H22V19.4844H20.0625V9.48438ZM22 9.48438H23.9375V19.4844H22V9.48438ZM20.402 10.9488L20.6442 10.7067L27.7152 17.7777L27.473 18.0199L20.402 10.9488ZM20.6442 10.7067L20.8863 10.4645L27.9574 17.5355L27.7152 17.7777L20.6442 10.7067ZM19.4219 14V12.6797H29.4219V14H19.4219ZM19.4219 12.6797V11.3594H29.4219V12.6797H19.4219ZM24.4219 6.35938H25.7422V16.3594H24.4219V6.35938ZM25.7422 6.35938H27.0625V16.3594H25.7422V6.35938ZM23.527 7.82384L23.7692 7.58165L30.8402 14.6527L30.598 14.8949L23.527 7.82384ZM23.7692 7.58165L24.0113 7.33947L31.0824 14.4105L30.8402 14.6527L23.7692 7.58165ZM22.5469 10.875V8.9375H32.5469V10.875H22.5469ZM22.5469 8.9375V7H32.5469V8.9375H22.5469ZM24.0113 10.5355L23.7692 10.2933L30.8402 3.22228L31.0824 3.46447L24.0113 10.5355ZM23.7692 10.2933L23.527 10.0512L30.598 2.98009L30.8402 3.22228L23.7692 10.2933ZM27.0625 11.5156H25.7422V1.51562H27.0625V11.5156ZM25.7422 11.5156H24.4219V1.51562H25.7422V11.5156ZM19.4219 6.51562V5.19531H29.4219V6.51562H19.4219ZM19.4219 5.19531V3.875H29.4219V5.19531H19.4219ZM20.8863 7.41053L20.6442 7.16835L27.7152 0.0972786L27.9574 0.339466L20.8863 7.41053ZM20.6442 7.16835L20.402 6.92616L27.473 -0.144909L27.7152 0.0972786L20.6442 7.16835ZM23.9375 8.39062H22V-1.60938H23.9375V8.39062ZM22 8.39062H20.0625V-1.60938H22V8.39062ZM23.598 6.92616L23.3558 7.16835L16.2848 0.0972786L16.527 -0.144909L23.598 6.92616ZM27.7031 6.42969V7.75H17.7031V6.42969H27.7031ZM26.2387 4.21447L26.4808 4.45665L19.4098 11.5277L19.1676 11.2855L26.2387 4.21447ZM26.4808 4.45665L26.723 4.69884L19.652 11.7699L19.4098 11.5277L26.4808 4.45665ZM23.1875 3.23438H24.5078V13.2344H23.1875V3.23438ZM24.5078 3.23438H25.8281V13.2344H24.5078V3.23438ZM30.8281 8.23438V8.9375H20.8281V8.23438H30.8281ZM30.8281 8.9375V9.64062H20.8281V8.9375H30.8281ZM25.8281 14.6406H24.5078V4.64062H25.8281V14.6406ZM24.5078 14.6406H23.1875V4.64062H24.5078V14.6406ZM26.723 13.1762L26.4808 13.4183L19.4098 6.34728L19.652 6.10509L26.723 13.1762ZM26.4808 13.4183L26.2387 13.6605L19.1676 6.58947L19.4098 6.34728L26.4808 13.4183ZM27.7031 10.125V11.4453H17.7031V10.125H27.7031ZM27.7031 11.4453V12.7656H17.7031V11.4453H27.7031ZM22.7031 17.7656H22V7.76562H22.7031V17.7656ZM22 17.7656H21.2969V7.76562H22V17.7656ZM16.2969 12.7656V11.4453H26.2969V12.7656H16.2969ZM16.2969 11.4453V10.125H26.2969V11.4453H16.2969ZM17.7613 13.6605L17.5192 13.4183L24.5902 6.34728L24.8324 6.58947L17.7613 13.6605ZM17.5192 13.4183L17.277 13.1762L24.348 6.10509L24.5902 6.34728L17.5192 13.4183ZM20.8125 14.6406H19.4922V4.64062H20.8125V14.6406ZM19.4922 14.6406H18.1719V4.64062H19.4922V14.6406ZM13.1719 9.64062V8.9375H23.1719V9.64062H13.1719ZM13.1719 8.9375V8.23438H23.1719V8.9375H13.1719ZM18.1719 3.23438H19.4922V13.2344H18.1719V3.23438ZM19.4922 3.23438H20.8125V13.2344H19.4922V3.23438ZM17.277 4.69884L17.5192 4.45665L24.5902 11.5277L24.348 11.7699L17.277 4.69884ZM17.5192 4.45665L17.7613 4.21447L24.8324 11.2855L24.5902 11.5277L17.5192 4.45665ZM16.2969 7.75V6.42969H26.2969V7.75H16.2969ZM16.2969 6.42969V5.10938H26.2969V6.42969H16.2969ZM21.2969 0.109375H22V10.1094H21.2969V0.109375ZM22 0.109375H22.7031V10.1094H22V0.109375ZM27.7031 5.10938V6.42969H17.7031V5.10938H27.7031Z" fill="#000040" mask="url(#path-2-inside-2_3587_6357)"/>
<path d="M22.9453 28.6328L22.7031 28.875V33.5469V38.2188L22.9453 38.4609L23.1875 38.7031H29.0312H34.875L35.1172 38.4609L35.3594 38.2188V33.5469V28.875L35.1172 28.6328L34.875 28.3906H29.0312H23.1875L22.9453 28.6328ZM33.6406 33.5469V36.9844H29.0312H24.4219V33.5469V30.1094H29.0312H33.6406V33.5469Z" fill="#000040"/>
</svg>
