<svg width="24" height="24" viewBox="0 0 24 24" fill="none" xmlns="http://www.w3.org/2000/svg">
<g clip-path="url(#clip0_4051_6615)">
<path d="M12.0101 14.399C13.3501 14.399 14.4401 13.3091 14.4401 11.9691C14.4401 10.6291 13.3501 9.53906 12.0101 9.53906C10.6701 9.53906 9.58008 10.6291 9.58008 11.9691C9.58008 13.3091 10.6701 14.399 12.0101 14.399Z" stroke="#000040" stroke-width="1.5" stroke-miterlimit="10"/>
<path d="M14.13 4.64975C14.31 5.28975 14.73 5.83975 15.3 6.17975C15.87 6.51975 16.54 6.61975 17.18 6.45975C17.65 6.31975 18.16 6.33975 18.62 6.52975C19.08 6.71975 19.46 7.05975 19.71 7.48975C19.96 7.91975 20.05 8.42975 19.98 8.92975C19.91 9.42975 19.67 9.87976 19.31 10.2198C18.85 10.6998 18.59 11.3497 18.59 12.0197C18.59 12.6897 18.85 13.3398 19.31 13.8198C19.67 14.1598 19.9 14.6197 19.98 15.1097C20.05 15.6097 19.96 16.1097 19.71 16.5497C19.46 16.9797 19.08 17.3198 18.62 17.5098C18.16 17.6998 17.66 17.7197 17.18 17.5797C16.54 17.4197 15.8601 17.5098 15.2801 17.8498C14.7101 18.1898 14.28 18.7298 14.1 19.3798C13.97 19.8498 13.69 20.2597 13.31 20.5497C12.93 20.8397 12.46 20.9998 11.98 20.9998C11.5 20.9998 11.04 20.8397 10.65 20.5497C10.27 20.2597 9.99001 19.8498 9.86001 19.3798C9.68001 18.7298 9.25001 18.1898 8.68001 17.8498C8.11001 17.5198 7.43005 17.4197 6.78005 17.5797C6.31005 17.7197 5.8 17.6898 5.35 17.4998C4.89 17.3098 4.51004 16.9698 4.27004 16.5398C4.03004 16.1098 3.93003 15.5997 4.01003 15.1097C4.08003 14.6197 4.32 14.1598 4.67 13.8198C5.13 13.3398 5.39004 12.6897 5.39004 12.0197C5.39004 11.3497 5.13 10.6998 4.67 10.2198C4.31 9.87976 4.08003 9.41975 4.01003 8.92975C3.94003 8.43975 4.03004 7.92976 4.27004 7.49976C4.51004 7.06976 4.89 6.72976 5.35 6.53976C5.81 6.34976 6.31005 6.31975 6.78005 6.45975C7.42005 6.61975 8.11001 6.51976 8.68001 6.18976C9.25001 5.84976 9.68001 5.29976 9.86001 4.65976C9.98001 4.18976 10.26 3.76976 10.64 3.46976C11.02 3.16976 11.5 3.00977 11.98 3.00977C12.46 3.00977 12.94 3.16976 13.32 3.46976C13.7 3.76976 13.98 4.18976 14.1 4.65976L14.13 4.64975Z" stroke="#000040" stroke-width="1.5" stroke-miterlimit="10" stroke-linecap="round"/>
</g>
<defs>
<clipPath id="clip0_4051_6615">
<rect width="24" height="24" fill="white"/>
</clipPath>
</defs>
</svg>
