<svg width="21" height="24" viewBox="0 0 21 24" fill="none" xmlns="http://www.w3.org/2000/svg">
<path d="M15.75 13.5C16.4766 13.5 17.1562 13.6367 17.7891 13.9102C18.4219 14.1836 18.9805 14.5586 19.4648 15.0352C19.9492 15.5117 20.3242 16.0664 20.5898 16.6992C20.8555 17.332 20.9922 18.0156 21 18.75C21 19.4766 20.8633 20.1562 20.5898 20.7891C20.3164 21.4219 19.9414 21.9805 19.4648 22.4648C18.9883 22.9492 18.4336 23.3242 17.8008 23.5898C17.168 23.8555 16.4844 23.9922 15.75 24C15.0234 24 14.3438 23.8633 13.7109 23.5898C13.0781 23.3164 12.5195 22.9414 12.0352 22.4648C11.5508 21.9883 11.1758 21.4336 10.9102 20.8008C10.6445 20.168 10.5078 19.4844 10.5 18.75C10.5 18.0234 10.6367 17.3438 10.9102 16.7109C11.1836 16.0781 11.5586 15.5195 12.0352 15.0352C12.5117 14.5508 13.0664 14.1758 13.6992 13.9102C14.332 13.6445 15.0156 13.5078 15.75 13.5ZM15.75 22.5C16.2656 22.5 16.75 22.4023 17.2031 22.207C17.6562 22.0117 18.0508 21.7461 18.3867 21.4102C18.7227 21.0742 18.9922 20.6758 19.1953 20.2148C19.3984 19.7539 19.5 19.2656 19.5 18.75C19.5 18.2344 19.4023 17.75 19.207 17.2969C19.0117 16.8438 18.7422 16.4492 18.3984 16.1133C18.0547 15.7773 17.6562 15.5078 17.2031 15.3047C16.75 15.1016 16.2656 15 15.75 15C15.2344 15 14.75 15.0977 14.2969 15.293C13.8438 15.4883 13.4453 15.7578 13.1016 16.1016C12.7578 16.4453 12.4883 16.8438 12.293 17.2969C12.0977 17.75 12 18.2344 12 18.75C12 19.2656 12.0977 19.75 12.293 20.2031C12.4883 20.6562 12.7539 21.0547 13.0898 21.3984C13.4258 21.7422 13.8242 22.0117 14.2852 22.207C14.7461 22.4023 15.2344 22.5 15.75 22.5ZM13.5 18H18V19.5H13.5V18ZM9.375 22.5C9.57031 22.7812 9.78125 23.0469 10.0078 23.2969C10.2344 23.5469 10.4805 23.7812 10.7461 24H0V10.5H3V6.11719C3 5.27344 3.15234 4.48047 3.45703 3.73828C3.76172 2.99609 4.18359 2.34766 4.72266 1.79297C5.26172 1.23828 5.89453 0.800781 6.62109 0.480469C7.34766 0.160156 8.14062 0 9 0C9.85156 0 10.6406 0.160156 11.3672 0.480469C12.0938 0.800781 12.7305 1.23828 13.2773 1.79297C13.8242 2.34766 14.2461 2.99609 14.543 3.73828C14.8398 4.48047 14.9922 5.27344 15 6.11719V10.5H18V12H1.5V22.5H9.375ZM4.5 10.5H13.5V6.11719C13.5 5.48438 13.3867 4.89062 13.1602 4.33594C12.9336 3.78125 12.6211 3.28906 12.2227 2.85938C11.8242 2.42969 11.3477 2.09766 10.793 1.86328C10.2383 1.62891 9.64062 1.50781 9 1.5C8.35938 1.5 7.76562 1.62109 7.21875 1.86328C6.67188 2.10547 6.19531 2.4375 5.78906 2.85938C5.38281 3.28125 5.06641 3.76953 4.83984 4.32422C4.61328 4.87891 4.5 5.47656 4.5 6.11719V10.5Z" fill="black"/>
</svg>
