<svg width="30" height="30" viewBox="0 0 30 30" fill="none" xmlns="http://www.w3.org/2000/svg">
<g clip-path="url(#clip0_3587_5544)">
<path d="M15.0123 17.9988C16.6873 17.9988 18.0498 16.6363 18.0498 14.9613C18.0498 13.2863 16.6873 11.9238 15.0123 11.9238C13.3373 11.9238 11.9749 13.2863 11.9749 14.9613C11.9749 16.6363 13.3373 17.9988 15.0123 17.9988Z" stroke="#000040" stroke-width="1.5" stroke-miterlimit="10"/>
<path d="M17.6624 5.8117C17.8874 6.6117 18.4124 7.2992 19.1249 7.7242C19.8374 8.1492 20.6749 8.2742 21.4749 8.0742C22.0624 7.8992 22.6999 7.92421 23.2749 8.16171C23.8499 8.39921 24.3249 8.82419 24.6374 9.36169C24.9499 9.89919 25.0624 10.5367 24.9749 11.1617C24.8874 11.7867 24.5874 12.3492 24.1374 12.7742C23.5624 13.3742 23.2374 14.1867 23.2374 15.0242C23.2374 15.8617 23.5624 16.6742 24.1374 17.2742C24.5874 17.6992 24.8749 18.2742 24.9749 18.8867C25.0624 19.5117 24.9499 20.1367 24.6374 20.6867C24.3249 21.2242 23.8499 21.6492 23.2749 21.8867C22.6999 22.1242 22.0749 22.1492 21.4749 21.9742C20.6749 21.7742 19.8249 21.8867 19.0999 22.3117C18.3874 22.7367 17.8499 23.4117 17.6249 24.2242C17.4624 24.8117 17.1124 25.3242 16.6374 25.6867C16.1624 26.0492 15.5749 26.2492 14.9749 26.2492C14.3749 26.2492 13.7999 26.0492 13.3124 25.6867C12.8374 25.3242 12.4874 24.8117 12.3249 24.2242C12.0999 23.4117 11.5624 22.7367 10.8499 22.3117C10.1374 21.8992 9.28744 21.7742 8.47494 21.9742C7.88744 22.1492 7.24987 22.1117 6.68737 21.8742C6.11237 21.6367 5.63743 21.2117 5.33743 20.6742C5.03743 20.1367 4.91242 19.4992 5.01242 18.8867C5.09992 18.2742 5.39988 17.6992 5.83738 17.2742C6.41238 16.6742 6.73742 15.8617 6.73742 15.0242C6.73742 14.1867 6.41238 13.3742 5.83738 12.7742C5.38738 12.3492 5.09992 11.7742 5.01242 11.1617C4.92492 10.5492 5.03743 9.91171 5.33743 9.37421C5.63743 8.83671 6.11237 8.41172 6.68737 8.17422C7.26237 7.93672 7.88744 7.8992 8.47494 8.0742C9.27494 8.2742 10.1374 8.14921 10.8499 7.73671C11.5624 7.31171 12.0999 6.62421 12.3249 5.82421C12.4749 5.23671 12.8249 4.71171 13.2999 4.33671C13.7749 3.96171 14.3749 3.76172 14.9749 3.76172C15.5749 3.76172 16.1749 3.96171 16.6499 4.33671C17.1249 4.71171 17.4749 5.23671 17.6249 5.82421L17.6624 5.8117Z" stroke="#000040" stroke-width="1.5" stroke-miterlimit="10" stroke-linecap="round"/>
</g>
<defs>
<clipPath id="clip0_3587_5544">
<rect width="30" height="30" fill="white"/>
</clipPath>
</defs>
</svg>
