<svg width="50" height="50" viewBox="0 0 50 50" fill="none" xmlns="http://www.w3.org/2000/svg">
<rect width="50" height="50" rx="25" fill="#D6D6F6"/>
<path d="M23.7401 28.5052C24.9966 27.6687 25.9506 26.4501 26.4609 25.0295C26.9712 23.6089 27.0108 22.0618 26.5739 20.617C26.1369 19.1721 25.2466 17.9063 24.0345 17.0066C22.8225 16.1069 21.3531 15.6211 19.8437 15.6211C18.3342 15.6211 16.8648 16.1069 15.6528 17.0066C14.4407 17.9063 13.5504 19.1721 13.1134 20.617C12.6765 22.0618 12.7161 23.6089 13.2264 25.0295C13.7367 26.4501 14.6907 27.6687 15.9472 28.5052C13.6743 29.3429 11.7332 30.893 10.4136 32.9243C10.3442 33.0274 10.296 33.1433 10.2719 33.2651C10.2477 33.387 10.2479 33.5124 10.2726 33.6342C10.2974 33.756 10.346 33.8716 10.4158 33.9744C10.4856 34.0772 10.5752 34.165 10.6792 34.2329C10.7833 34.3008 10.8998 34.3473 11.022 34.3698C11.1442 34.3922 11.2697 34.3901 11.3911 34.3637C11.5125 34.3372 11.6274 34.2869 11.7291 34.2156C11.8309 34.1444 11.9175 34.0536 11.9839 33.9486C12.8351 32.6393 13.9999 31.5635 15.3725 30.8187C16.7451 30.0739 18.282 29.6838 19.8437 29.6838C21.4053 29.6838 22.9422 30.0739 24.3148 30.8187C25.6874 31.5635 26.8522 32.6393 27.7034 33.9486C27.8409 34.1529 28.0533 34.295 28.2947 34.344C28.5361 34.393 28.7871 34.345 28.9934 34.2104C29.1997 34.0759 29.3448 33.8655 29.3972 33.6249C29.4497 33.3842 29.4053 33.1326 29.2737 32.9243C27.9541 30.893 26.013 29.3429 23.7401 28.5052ZM14.6874 22.6552C14.6874 21.6354 14.9898 20.6385 15.5564 19.7905C16.123 18.9426 16.9283 18.2817 17.8704 17.8914C18.8126 17.5012 19.8494 17.3991 20.8496 17.598C21.8498 17.797 22.7686 18.2881 23.4897 19.0092C24.2108 19.7303 24.7019 20.649 24.9008 21.6493C25.0998 22.6495 24.9977 23.6862 24.6074 24.6284C24.2171 25.5706 23.5563 26.3759 22.7083 26.9425C21.8604 27.509 20.8635 27.8114 19.8437 27.8114C18.4766 27.8099 17.166 27.2662 16.1993 26.2995C15.2327 25.3329 14.689 24.0222 14.6874 22.6552ZM39.3132 34.2216C39.1049 34.3574 38.8513 34.4049 38.608 34.3537C38.3647 34.3025 38.1518 34.1568 38.0159 33.9486C37.1657 32.6385 36.001 31.5622 34.6282 30.8177C33.2553 30.0733 31.7179 29.6844 30.1562 29.6864C29.9075 29.6864 29.6691 29.5877 29.4932 29.4119C29.3174 29.236 29.2187 28.9976 29.2187 28.7489C29.2187 28.5003 29.3174 28.2618 29.4932 28.086C29.6691 27.9102 29.9075 27.8114 30.1562 27.8114C30.9155 27.8107 31.6653 27.6423 32.352 27.3182C33.0387 26.9941 33.6454 26.5224 34.1286 25.9367C34.6119 25.3509 34.9598 24.6657 35.1475 23.9299C35.3352 23.1942 35.3581 22.426 35.2146 21.6804C35.071 20.9347 34.7645 20.23 34.317 19.6165C33.8695 19.0031 33.2921 18.496 32.6259 18.1316C31.9597 17.7671 31.2213 17.5544 30.4633 17.5084C29.7054 17.4624 28.9466 17.5845 28.2413 17.8657C28.1263 17.9155 28.0025 17.9416 27.8772 17.9427C27.752 17.9437 27.6277 17.9197 27.5119 17.8719C27.3961 17.8241 27.291 17.7537 27.2029 17.6646C27.1148 17.5755 27.0454 17.4697 26.9989 17.3534C26.9523 17.2371 26.9296 17.1126 26.932 16.9873C26.9344 16.8621 26.9618 16.7386 27.0128 16.6241C27.0637 16.5096 27.1371 16.4065 27.2285 16.3209C27.32 16.2353 27.4277 16.1688 27.5452 16.1255C29.1594 15.4817 30.9549 15.4586 32.5851 16.0605C34.2154 16.6624 35.5651 17.8467 36.3737 19.385C37.1823 20.9233 37.3925 22.7065 36.9639 24.3906C36.5353 26.0748 35.4982 27.5406 34.0526 28.5052C36.3255 29.3429 38.2666 30.893 39.5862 32.9243C39.722 33.1326 39.7695 33.3862 39.7183 33.6295C39.6671 33.8728 39.5214 34.0858 39.3132 34.2216Z" fill="#000040"/>
</svg>
