<svg width="30" height="30" viewBox="0 0 30 30" fill="none" xmlns="http://www.w3.org/2000/svg">
<g clip-path="url(#clip0_4051_1645)">
<path d="M16.1376 4.48672L18.6251 9.76172C18.8126 10.1492 19.1626 10.4242 19.5876 10.4867L25.1626 11.3367C26.2001 11.4992 26.6251 12.8367 25.8626 13.5992L21.8251 17.7117C21.5251 18.0117 21.3876 18.4617 21.4626 18.8867L22.4126 24.6867C22.5876 25.7742 21.5001 26.5992 20.5626 26.0867L15.5751 23.3492C15.2001 23.1492 14.7626 23.1492 14.3876 23.3492L9.40012 26.0867C8.46262 26.5992 7.37514 25.7742 7.55014 24.6867L8.50011 18.8867C8.57511 18.4617 8.43764 18.0117 8.13764 17.7117L4.10013 13.5992C3.35013 12.8367 3.76262 11.4867 4.80012 11.3367L10.3751 10.4867C10.7876 10.4242 11.1501 10.1492 11.3376 9.76172L13.8251 4.48672C14.2876 3.49922 15.6376 3.49922 16.1001 4.48672H16.1376Z" stroke="#000040" stroke-width="1.5" stroke-linecap="round" stroke-linejoin="round"/>
</g>
<defs>
<clipPath id="clip0_4051_1645">
<rect width="30" height="30" fill="white"/>
</clipPath>
</defs>
</svg>
