<svg width="18" height="18" viewBox="0 0 18 18" fill="none" xmlns="http://www.w3.org/2000/svg">
<path d="M9.78056 1.99375L11.4389 5.51042C11.5639 5.76875 11.7972 5.9521 12.0806 5.99377L15.7972 6.56043C16.4889 6.66876 16.7722 7.56042 16.2639 8.06876L13.5722 10.8104C13.3722 11.0104 13.2806 11.3104 13.3306 11.5937L13.9639 15.4604C14.0805 16.1854 13.3556 16.7354 12.7306 16.3937L9.40555 14.5687C9.15555 14.4354 8.8639 14.4354 8.6139 14.5687L5.28888 16.3937C4.66388 16.7354 3.9389 16.1854 4.05556 15.4604L4.68888 11.5937C4.73888 11.3104 4.64723 11.0104 4.44723 10.8104L1.75555 8.06876C1.25555 7.56042 1.53055 6.66043 2.22222 6.56043L5.93888 5.99377C6.21388 5.9521 6.45556 5.76875 6.58056 5.51042L8.23889 1.99375C8.54722 1.33542 9.44723 1.33542 9.75556 1.99375H9.78056Z" fill="#FF9529" stroke="#FF9529" stroke-width="1.5" stroke-linecap="round" stroke-linejoin="round"/>
</svg>
