<svg width="40" height="42" viewBox="0 0 40 42" fill="none" xmlns="http://www.w3.org/2000/svg">
<path d="M25.5834 13.5C25.5834 15.7083 24.9584 17.7708 23.8125 19.5208C23.7292 19.6875 23.6251 19.8333 23.5209 19.9792C21.5209 22.8542 18.1667 24.75 14.4167 24.75C8.25007 24.75 3.22925 19.7083 3.22925 13.5C3.22925 7.29167 8.25007 2.25 14.4167 2.25C18.1876 2.25 21.5417 4.14583 23.5209 7.02083C23.6251 7.16667 23.7292 7.3125 23.8125 7.5C24.9584 9.25 25.5834 11.3125 25.5834 13.5208V13.5Z" stroke="black" stroke-width="3" stroke-linecap="round" stroke-linejoin="round"/>
<path d="M37.7085 13.5007C37.7085 18.084 34.021 21.7923 29.4793 21.7923C27.2918 21.7923 25.3127 20.9382 23.8335 19.5215C24.9793 17.7715 25.6043 15.709 25.6043 13.5007C25.6043 11.2923 24.9793 9.22982 23.8335 7.47982C25.3127 6.06315 27.2918 5.20898 29.4793 5.20898C34.021 5.20898 37.7085 8.91732 37.7085 13.5007Z" stroke="black" stroke-width="3" stroke-linecap="round" stroke-linejoin="round"/>
<path d="M2.29175 39.7495C7.72925 30.5411 20.9584 30.4995 26.4584 39.6453L26.5209 39.7495" stroke="black" stroke-width="3" stroke-linecap="round" stroke-linejoin="round"/>
<path d="M34.9168 37.8757C34.0418 34.834 31.9585 32.459 29.3335 31.4382L31.8127 28.959" stroke="black" stroke-width="3" stroke-linecap="round" stroke-linejoin="round"/>
</svg>
