<svg width="24" height="24" viewBox="0 0 24 24" fill="none" xmlns="http://www.w3.org/2000/svg">
<path fill-rule="evenodd" clip-rule="evenodd" d="M10.5939 2.31867C11.0329 2.10889 11.5133 2 11.9999 2C12.4865 2 12.9669 2.10889 13.4059 2.31867C13.7929 2.50367 14.1459 2.80567 14.6369 3.22367L14.7149 3.28967C14.9529 3.49267 15.0279 3.55467 15.1039 3.60567C15.2969 3.73567 15.5139 3.82467 15.7409 3.86967C15.8309 3.88767 15.9279 3.89667 16.2399 3.92067L16.3409 3.92867C16.9829 3.97967 17.4469 4.01667 17.8509 4.15867C18.3098 4.3213 18.7267 4.58436 19.0709 4.92864C19.4152 5.27292 19.6783 5.68974 19.8409 6.14867C19.9829 6.55267 20.0189 7.01667 20.0709 7.65867L20.0789 7.75967C20.1029 8.07167 20.1119 8.16967 20.1299 8.25867C20.1749 8.48667 20.2649 8.70367 20.3939 8.89667C20.4449 8.97167 20.5069 9.04667 20.7099 9.28467L20.7759 9.36267C21.1949 9.85267 21.4959 10.2067 21.6809 10.5927C22.1059 11.4827 22.1059 12.5167 21.6809 13.4057C21.4969 13.7927 21.1949 14.1457 20.7759 14.6367L20.7099 14.7147C20.5978 14.8387 20.4923 14.9685 20.3939 15.1037C20.2639 15.2967 20.1749 15.5137 20.1299 15.7407C20.1119 15.8307 20.1039 15.9277 20.0789 16.2397L20.0699 16.3407C20.0199 16.9827 19.9829 17.4467 19.8399 17.8507C19.678 18.3099 19.4153 18.7269 19.0711 19.0713C18.727 19.4157 18.31 19.6786 17.8509 19.8407C17.4469 19.9827 16.9829 20.0187 16.3409 20.0707L16.2399 20.0787C16.0728 20.0869 15.9062 20.1039 15.7409 20.1297C15.5132 20.1747 15.2967 20.2644 15.1039 20.3937C14.9685 20.4922 14.8383 20.5977 14.7139 20.7097L14.6369 20.7757C14.1469 21.1947 13.7929 21.4957 13.4069 21.6807C12.9678 21.8906 12.4872 21.9996 12.0004 21.9996C11.5137 21.9996 11.0331 21.8906 10.5939 21.6807C10.2069 21.4967 9.85391 21.1947 9.36291 20.7757C9.33692 20.7537 9.31092 20.7317 9.28491 20.7097C9.16119 20.5976 9.03168 20.4922 8.89691 20.3937C8.70394 20.2641 8.48703 20.1743 8.25891 20.1297C8.09359 20.1039 7.92703 20.0869 7.75991 20.0787L7.65891 20.0697C7.01691 20.0197 6.55291 19.9827 6.14891 19.8397C5.68977 19.6777 5.27272 19.415 4.92837 19.0708C4.58401 18.7267 4.3211 18.3097 4.15891 17.8507C4.01691 17.4467 3.97991 16.9827 3.92891 16.3407L3.92091 16.2397C3.91269 16.0726 3.89567 15.906 3.86991 15.7407C3.82488 15.513 3.73515 15.2965 3.60591 15.1037C3.50754 14.9682 3.40206 14.838 3.28991 14.7137L3.22391 14.6367C2.80591 14.1467 2.50391 13.7927 2.31891 13.4067C2.10897 12.9675 2 12.4869 2 12.0002C2 11.5134 2.10897 11.0328 2.31891 10.5937C2.50391 10.2067 2.80591 9.85367 3.22391 9.36267L3.28991 9.28467C3.40198 9.16097 3.50745 9.03146 3.60591 8.89667C3.73591 8.70367 3.82491 8.48667 3.86991 8.25867C3.88791 8.16867 3.89691 8.07167 3.92091 7.75967L3.92891 7.65867C3.97991 7.01667 4.01691 6.55267 4.15891 6.14867C4.32097 5.68943 4.58383 5.27231 4.92819 4.92795C5.27255 4.58359 5.68967 4.32073 6.14891 4.15867C6.55291 4.01667 7.01691 3.97967 7.65891 3.92867L7.75991 3.92067C7.92707 3.91303 8.09366 3.896 8.25891 3.86967C8.48691 3.82467 8.70391 3.73467 8.89691 3.60567C8.97191 3.55467 9.04691 3.49267 9.28491 3.28967L9.36291 3.22367C9.85291 2.80567 10.2079 2.50367 10.5939 2.31867ZM12.7559 3.67667C12.5195 3.56374 12.2609 3.50513 11.9989 3.50513C11.7369 3.50513 11.4783 3.56374 11.2419 3.67667C11.0569 3.76467 10.8619 3.92367 10.2609 4.43467L10.2309 4.45967C10.0339 4.62767 9.89091 4.75067 9.73391 4.85567C9.37491 5.09567 8.97291 5.26267 8.54891 5.34567C8.36391 5.38267 8.17591 5.39767 7.91691 5.41867L7.87891 5.42167C7.09191 5.48467 6.84291 5.51067 6.64891 5.57867C6.14891 5.75567 5.75491 6.14867 5.57891 6.64967C5.50891 6.84367 5.48391 7.09267 5.42091 7.87967L5.41791 7.91767C5.39791 8.17667 5.38191 8.36467 5.34591 8.54967C5.26191 8.97367 5.09591 9.37567 4.85591 9.73467C4.74991 9.89167 4.62691 10.0347 4.45891 10.2327L4.43391 10.2617C3.92291 10.8617 3.76391 11.0577 3.67591 11.2417C3.56282 11.4782 3.50413 11.737 3.50413 11.9992C3.50413 12.2613 3.56282 12.5202 3.67591 12.7567C3.76391 12.9417 3.92291 13.1367 4.43391 13.7377L4.45891 13.7677C4.62691 13.9647 4.74991 14.1077 4.85491 14.2647C5.09491 14.6237 5.26191 15.0257 5.34491 15.4497C5.38191 15.6347 5.39691 15.8227 5.41791 16.0817L5.42091 16.1197C5.48391 16.9067 5.50991 17.1557 5.57791 17.3497C5.75491 17.8497 6.14791 18.2437 6.64891 18.4197C6.84291 18.4897 7.09191 18.5147 7.87891 18.5777L7.91691 18.5807C8.17591 18.6007 8.36391 18.6167 8.54891 18.6527C8.97291 18.7367 9.37491 18.9027 9.73391 19.1427C9.89091 19.2487 10.0339 19.3717 10.2319 19.5397L10.2609 19.5647C10.8609 20.0757 11.0569 20.2347 11.2409 20.3227C11.4774 20.4358 11.7363 20.4945 11.9984 20.4945C12.2606 20.4945 12.5194 20.4358 12.7559 20.3227C12.9409 20.2347 13.1359 20.0757 13.7369 19.5647L13.7669 19.5397C13.9639 19.3717 14.1069 19.2487 14.2639 19.1437C14.6229 18.9037 15.0249 18.7367 15.4489 18.6537C15.658 18.6172 15.869 18.5929 16.0809 18.5807L16.1189 18.5777C16.9059 18.5147 17.1549 18.4887 17.3489 18.4207C17.8489 18.2437 18.2429 17.8507 18.4189 17.3497C18.4889 17.1557 18.5139 16.9057 18.5769 16.1197L18.5799 16.0817C18.5917 15.8695 18.6158 15.6581 18.6519 15.4487C18.7359 15.0257 18.9019 14.6237 19.1419 14.2647C19.2479 14.1077 19.3709 13.9647 19.5389 13.7667L19.5639 13.7377C20.0749 13.1377 20.2339 12.9417 20.3219 12.7577C20.435 12.5212 20.4937 12.2623 20.4937 12.0002C20.4937 11.738 20.435 11.4792 20.3219 11.2427C20.2339 11.0577 20.0749 10.8627 19.5639 10.2617L19.5389 10.2317C19.3709 10.0347 19.2479 9.89167 19.1429 9.73467C18.9028 9.37598 18.7362 8.9732 18.6529 8.54967C18.6165 8.34058 18.5921 8.12957 18.5799 7.91767L18.5769 7.87967C18.5139 7.09267 18.4879 6.84367 18.4199 6.64967C18.2429 6.14967 17.8499 5.75567 17.3489 5.57967C17.1549 5.50967 16.9049 5.48467 16.1189 5.42167L16.0809 5.41867C15.8687 5.40677 15.6574 5.38274 15.4479 5.34667C15.0247 5.26323 14.6223 5.09668 14.2639 4.85667C14.1069 4.75067 13.9639 4.62767 13.7659 4.45967L13.7369 4.43467C13.1369 3.92367 12.9409 3.76467 12.7569 3.67667M16.0439 8.95867C16.114 9.02853 16.1696 9.11153 16.2075 9.2029C16.2454 9.29428 16.2649 9.39224 16.2649 9.49117C16.2649 9.59011 16.2454 9.68807 16.2075 9.77945C16.1696 9.87082 16.114 9.95382 16.0439 10.0237L11.0269 15.0407C10.8857 15.1816 10.6944 15.2608 10.4949 15.2608C10.2954 15.2608 10.1041 15.1816 9.96291 15.0407L7.95591 13.0337C7.88125 12.9649 7.82126 12.8818 7.77954 12.7893C7.73782 12.6967 7.71524 12.5967 7.71315 12.4953C7.71106 12.3938 7.72951 12.2929 7.76738 12.1988C7.80525 12.1046 7.86177 12.0191 7.93354 11.9473C8.00531 11.8755 8.09084 11.819 8.18501 11.7811C8.27917 11.7433 8.38002 11.7248 8.48149 11.7269C8.58297 11.729 8.68297 11.7516 8.7755 11.7933C8.86802 11.835 8.95116 11.895 9.01991 11.9697L10.4949 13.4437L14.9799 8.95967C15.1211 8.81874 15.3124 8.73958 15.5119 8.73958C15.7114 8.73958 15.9027 8.81874 16.0439 8.95967" fill="white"/>
</svg>
