<svg width="30" height="30" viewBox="0 0 30 30" fill="none" xmlns="http://www.w3.org/2000/svg">
<g clip-path="url(#clip0_3339_9630)">
<path d="M20 7.125H10C7.23858 7.125 5 9.36358 5 12.125V21.25C5 24.0114 7.23858 26.25 10 26.25H20C22.7614 26.25 25 24.0114 25 21.25V12.125C25 9.36358 22.7614 7.125 20 7.125Z" stroke="black" stroke-width="1.5" stroke-linejoin="round"/>
<path d="M10.5 3.75V7.125" stroke="black" stroke-width="1.5" stroke-linecap="round" stroke-linejoin="round"/>
<path d="M19.5 3.75V7.125" stroke="black" stroke-width="1.5" stroke-linecap="round" stroke-linejoin="round"/>
<path d="M25.1249 12.75H4.875" stroke="black" stroke-width="1.5" stroke-linejoin="round"/>
<path d="M10.3623 17.25H10.6373" stroke="black" stroke-width="1.5" stroke-linecap="round" stroke-linejoin="round"/>
<path d="M14.1499 17.25H15.8499" stroke="black" stroke-width="1.5" stroke-linecap="round" stroke-linejoin="round"/>
<path d="M19.3623 17.25H19.6373" stroke="black" stroke-width="1.5" stroke-linecap="round" stroke-linejoin="round"/>
<path d="M10.3623 21.75H12.3873" stroke="black" stroke-width="1.5" stroke-linecap="round" stroke-linejoin="round"/>
<path d="M16.1251 21.75H15.8501" stroke="black" stroke-width="1.5" stroke-linecap="round" stroke-linejoin="round"/>
<path d="M19.3623 21.75H19.6373" stroke="black" stroke-width="1.5" stroke-linecap="round" stroke-linejoin="round"/>
</g>
<defs>
<clipPath id="clip0_3339_9630">
<rect width="30" height="30" fill="white"/>
</clipPath>
</defs>
</svg>
