<svg width="30" height="30" viewBox="0 0 30 30" fill="none" xmlns="http://www.w3.org/2000/svg">
<path d="M18.75 19.6875H11.25C10.7527 19.6875 10.2758 19.49 9.92418 19.1383C9.57254 18.7867 9.375 18.3098 9.375 17.8125V15.9375C9.375 15.4402 9.57254 14.9633 9.92418 14.6117C10.2758 14.26 10.7527 14.0625 11.25 14.0625H18.75C19.2473 14.0625 19.7242 14.26 20.0758 14.6117C20.4275 14.9633 20.625 15.4402 20.625 15.9375V17.8125C20.625 18.3098 20.4275 18.7867 20.0758 19.1383C19.7242 19.49 19.2473 19.6875 18.75 19.6875ZM11.25 15.9375V17.8125H18.75V15.9375H11.25Z" fill="#000040"/>
<path d="M26.25 3.75H3.75C3.25272 3.75 2.77581 3.94754 2.42417 4.29917C2.07254 4.65081 1.875 5.12772 1.875 5.625V9.375C1.875 9.87228 2.07254 10.3492 2.42417 10.7008C2.77581 11.0525 3.25272 11.25 3.75 11.25V26.25C3.75 26.7473 3.94754 27.2242 4.29917 27.5758C4.65081 27.9275 5.12772 28.125 5.625 28.125H24.375C24.8723 28.125 25.3492 27.9275 25.7008 27.5758C26.0525 27.2242 26.25 26.7473 26.25 26.25V11.25C26.7473 11.25 27.2242 11.0525 27.5758 10.7008C27.9275 10.3492 28.125 9.87228 28.125 9.375V5.625C28.125 5.12772 27.9275 4.65081 27.5758 4.29917C27.2242 3.94754 26.7473 3.75 26.25 3.75ZM24.375 26.25H5.625V11.25H24.375V26.25ZM26.25 9.375H3.75V5.625H26.25V9.375Z" fill="#000040"/>
</svg>
