<svg width="30" height="30" viewBox="0 0 30 30" fill="none" xmlns="http://www.w3.org/2000/svg">
<path d="M13.4125 6.34125C13.9395 6.28013 14.4695 6.24966 15 6.25C20.83 6.25 25.5 9.87875 27.5 15C27.0159 16.2457 26.3617 17.4185 25.5562 18.485M8.15 8.14875C5.6 9.705 3.625 12.1163 2.5 15C4.5 20.1213 9.17 23.75 15 23.75C17.4152 23.7627 19.7865 23.105 21.85 21.85M12.35 12.35C12.0018 12.6983 11.7255 13.1117 11.537 13.5667C11.3486 14.0217 11.2516 14.5094 11.2516 15.0019C11.2516 15.4944 11.3486 15.9821 11.537 16.4371C11.7255 16.8921 12.0018 17.3055 12.35 17.6538C12.6982 18.002 13.1117 18.2782 13.5667 18.4667C14.0217 18.6552 14.5094 18.7522 15.0019 18.7522C15.4944 18.7522 15.9821 18.6552 16.4371 18.4667C16.8921 18.2782 17.3055 18.002 17.6538 17.6538" stroke="#000040" stroke-linecap="round" stroke-linejoin="round"/>
<path d="M5 5L25 25" stroke="#000040" stroke-linecap="round"/>
</svg>
