<svg width="30" height="30" viewBox="0 0 30 30" fill="none" xmlns="http://www.w3.org/2000/svg">
<g clip-path="url(#clip0_3339_9614)">
<path d="M15.1017 9.41624C11.9953 9.41624 9.47666 11.9348 9.47666 15.0412C9.47666 18.1472 11.9953 20.6662 15.1017 20.6662C18.2081 20.6662 20.7267 18.1477 20.7267 15.0412C20.7267 11.9348 18.2081 9.41624 15.1017 9.41624ZM15.1017 18.7912C13.034 18.7912 11.3085 17.0681 11.3085 15.0004C11.3085 12.9327 12.9908 11.2504 15.0585 11.2504C17.1266 11.2504 18.8085 12.9328 18.8085 15.0004C18.8085 17.0681 17.1698 18.7912 15.1017 18.7912ZM29.9906 14.7825C29.9798 14.7352 29.9845 14.6851 29.9704 14.6386C29.9643 14.619 29.9521 14.6077 29.9451 14.5904C29.9353 14.5637 29.9376 14.5323 29.924 14.5065C27.1973 8.26321 21.3206 4.66977 15.0581 4.66977C8.79559 4.66977 2.80122 8.25665 0.0730957 14.5004C0.061377 14.5267 0.063252 14.5538 0.0538477 14.5839C0.0473145 14.6021 0.0337207 14.6124 0.027627 14.6298C0.0130957 14.6771 0.0187207 14.7263 0.00981445 14.7741C-0.0075 14.8585 -0.0234375 14.9406 -0.0234375 15.0259C-0.0234375 15.1121 -0.0075 15.1918 0.00981445 15.2776C0.0191895 15.3244 0.013125 15.3755 0.0276562 15.4205C0.03375 15.4416 0.0473437 15.4505 0.053877 15.4697C0.0637207 15.4955 0.061377 15.5274 0.0730957 15.5532C2.80169 21.7951 8.73747 25.3299 15 25.3299C21.2629 25.3299 27.1973 21.8026 29.925 15.5592C29.9386 15.5325 29.9358 15.5044 29.9461 15.4749C29.9526 15.4585 29.9653 15.4463 29.9709 15.428C29.9854 15.3821 29.9808 15.3319 29.991 15.2841C30.0074 15.2002 30.0229 15.1181 30.0229 15.0314C30.0229 14.9489 30.0074 14.8674 29.9906 14.7825ZM14.9999 23.4549C9.68853 23.4549 4.4606 20.6551 1.89185 15.0268C4.43622 9.41724 9.73403 6.54521 15.0586 6.54521C20.3812 6.54521 25.5614 9.42052 28.1067 15.0329C25.5633 20.6405 20.3245 23.4549 14.9999 23.4549Z" fill="#000040"/>
</g>
<defs>
<clipPath id="clip0_3339_9614">
<rect width="30" height="30" fill="white"/>
</clipPath>
</defs>
</svg>
