<svg width="30" height="30" viewBox="0 0 30 30" fill="none" xmlns="http://www.w3.org/2000/svg">
<g clip-path="url(#clip0_3339_9668)">
<path d="M6.0874 6.25C7.2624 5.0875 8.8499 4.41251 10.4999 4.38751C12.1624 4.36251 13.7624 4.96249 14.9749 6.08749C16.1624 4.98749 17.7249 4.3875 19.3374 4.375C20.2749 4.4125 21.2124 4.63754 22.0624 5.03754C22.9249 5.43754 23.6999 5.99998 24.3374 6.69998C24.9874 7.39998 25.4749 8.21254 25.7999 9.10004C26.1249 9.98754 26.2749 10.9375 26.2374 11.8875C26.2374 12.95 26.0374 14.0125 25.6249 14.9875C25.2124 15.9625 24.5999 16.85 23.8249 17.5875L23.6624 17.7375L14.9124 25.6375L12.8499 23.7625" stroke="#000040" stroke-width="1.5" stroke-linecap="round" stroke-linejoin="round"/>
<path d="M18.7125 15H16.225L12.4875 11.25L7.48749 18.75L3.75 14.825" stroke="#000040" stroke-width="1.5" stroke-linecap="round" stroke-linejoin="round"/>
</g>
<defs>
<clipPath id="clip0_3339_9668">
<rect width="30" height="30" fill="white"/>
</clipPath>
</defs>
</svg>
