<svg width="25" height="25" viewBox="0 0 25 25" fill="none" xmlns="http://www.w3.org/2000/svg">
<path d="M18.4695 22.6701C17.2311 23.8706 15.8789 23.6811 14.5773 23.1124C13.1999 22.5311 11.9362 22.5058 10.4829 23.1124C8.66317 23.8959 7.70276 23.6684 6.61598 22.6701C0.44911 16.3137 1.35898 6.63372 8.35988 6.27988C10.0659 6.36834 11.2538 7.21502 12.2521 7.29085C13.7433 6.98756 15.1712 6.1156 16.7635 6.22934C18.6717 6.38098 20.1123 7.1392 21.0601 8.504C17.1173 10.8671 18.0525 16.0609 21.6667 17.5142C20.9464 19.4097 20.0112 21.2927 18.4569 22.6827L18.4695 22.6701ZM12.1257 6.20406C11.9362 3.38601 14.2235 1.06079 16.852 0.833328C17.2184 4.09368 13.8949 6.51999 12.1257 6.20406Z" fill="#000040"/>
</svg>
