<svg width="30" height="30" viewBox="0 0 30 30" fill="none" xmlns="http://www.w3.org/2000/svg">
<path fill-rule="evenodd" clip-rule="evenodd" d="M3.08709 6.83709C3.2629 6.66127 3.50136 6.5625 3.75 6.5625H5.83125C6.24767 6.55979 6.65295 6.69689 6.9822 6.95186C7.31145 7.20682 7.54561 7.5649 7.64719 7.96875L10.1062 17.8125H21.7969L24.0525 9.375H26.0156L23.5856 18.3094C23.3634 19.125 22.6444 19.6875 21.7978 19.6875H20.625H12.1875H10.1072C9.2475 19.6875 8.50031 19.1156 8.29125 18.2813L5.83125 8.4375H3.75C3.50136 8.4375 3.2629 8.33873 3.08709 8.16291C2.91127 7.9871 2.8125 7.74864 2.8125 7.5C2.8125 7.25136 2.91127 7.0129 3.08709 6.83709ZM12.1875 19.6875C13.7297 19.6875 15 20.9578 15 22.5C15 24.0422 13.7297 25.3125 12.1875 25.3125C10.6453 25.3125 9.375 24.0422 9.375 22.5C9.375 20.9578 10.6453 19.6875 12.1875 19.6875ZM20.625 19.6875C22.1672 19.6875 23.4375 20.9578 23.4375 22.5C23.4375 24.0422 22.1672 25.3125 20.625 25.3125C19.0828 25.3125 17.8125 24.0422 17.8125 22.5C17.8125 20.9578 19.0828 19.6875 20.625 19.6875ZM13.125 22.5C13.125 21.9713 12.7163 21.5625 12.1875 21.5625C11.6587 21.5625 11.25 21.9713 11.25 22.5C11.25 23.0288 11.6587 23.4375 12.1875 23.4375C12.7163 23.4375 13.125 23.0288 13.125 22.5ZM21.5625 22.5C21.5625 21.9713 21.1538 21.5625 20.625 21.5625C20.0962 21.5625 19.6875 21.9713 19.6875 22.5C19.6875 23.0288 20.0962 23.4375 20.625 23.4375C21.1538 23.4375 21.5625 23.0288 21.5625 22.5Z" fill="#000040"/>
<path d="M13 10L15.5 13.5L20.5 6" stroke="#34B233" stroke-width="1.5" stroke-linecap="round" stroke-linejoin="round"/>
</svg>
