<svg width="30" height="30" viewBox="0 0 30 30" fill="none" xmlns="http://www.w3.org/2000/svg">
<g clip-path="url(#clip0_3339_9685)">
<path d="M22.0746 22.0875C23.4783 22.0875 24.6212 20.9625 24.6336 19.575C24.6336 18.875 24.3479 18.2 23.8386 17.7L23.1553 17.025C22.5094 16.3875 22.1491 15.5375 22.1491 14.6375V11.25C22.1491 10.225 21.9876 9.2 21.5777 8.25C20.3603 5.425 17.6025 3.72498 14.6833 3.73748C10.5715 3.73748 7.24228 7.02497 7.24228 11.075V14.625C7.24228 15.525 6.88204 16.375 6.23608 17.0125L5.55284 17.6875C5.04353 18.1875 4.75781 18.8625 4.75781 19.5625C4.75781 20.95 5.90067 22.075 7.31682 22.075H22.087L22.0746 22.0875Z" stroke="black" stroke-width="1.5" stroke-linecap="round" stroke-linejoin="round"/>
<path d="M12.7451 26.25H16.6333" stroke="black" stroke-width="1.5" stroke-linecap="round" stroke-linejoin="round"/>
</g>
<defs>
<clipPath id="clip0_3339_9685">
<rect width="29.8137" height="30" fill="white"/>
</clipPath>
</defs>
</svg>
