<svg width="30" height="30" viewBox="0 0 30 30" fill="none" xmlns="http://www.w3.org/2000/svg">
<path d="M10.7813 15.9375C10.5958 15.9375 10.4146 15.8825 10.2604 15.7795C10.1062 15.6765 9.98608 15.5301 9.91512 15.3588C9.84416 15.1875 9.8256 14.999 9.86177 14.8171C9.89794 14.6352 9.98723 14.4682 10.1183 14.3371C10.2495 14.206 10.4165 14.1167 10.5984 14.0805C10.7802 14.0443 10.9687 14.0629 11.14 14.1339C11.3113 14.2048 11.4577 14.325 11.5608 14.4792C11.6638 14.6333 11.7188 14.8146 11.7188 15C11.7188 15.2486 11.62 15.4871 11.4442 15.6629C11.2684 15.8387 11.0299 15.9375 10.7813 15.9375ZM19.2188 14.0625C19.0333 14.0625 18.8521 14.1175 18.6979 14.2205C18.5437 14.3235 18.4236 14.4699 18.3526 14.6412C18.2817 14.8125 18.2631 15.001 18.2993 15.1829C18.3354 15.3648 18.4247 15.5318 18.5558 15.6629C18.687 15.794 18.854 15.8833 19.0359 15.9195C19.2177 15.9557 19.4062 15.9371 19.5775 15.8661C19.7488 15.7952 19.8952 15.675 19.9983 15.5208C20.1013 15.3667 20.1563 15.1854 20.1563 15C20.1563 14.7514 20.0575 14.5129 19.8817 14.3371C19.7059 14.1613 19.4674 14.0625 19.2188 14.0625ZM18.0316 19.2914C17.1216 19.8571 16.0715 20.1569 15 20.1569C13.9285 20.1569 12.8784 19.8571 11.9684 19.2914C11.8635 19.2323 11.74 19.2158 11.6233 19.2453C11.5067 19.2748 11.4058 19.3481 11.3417 19.4499C11.2775 19.5517 11.255 19.6743 11.2787 19.7922C11.3024 19.9102 11.3706 20.0145 11.4691 20.0836C12.5287 20.7434 13.7519 21.0931 15 21.0931C16.2482 21.0931 17.4713 20.7434 18.5309 20.0836C18.5862 20.0524 18.6346 20.0103 18.6732 19.9599C18.7117 19.9094 18.7396 19.8517 18.7552 19.7901C18.7708 19.7286 18.7737 19.6645 18.7637 19.6018C18.7538 19.5391 18.7312 19.479 18.6973 19.4253C18.6635 19.3716 18.6191 19.3253 18.5668 19.2893C18.5145 19.2532 18.4554 19.2282 18.3932 19.2157C18.3309 19.2031 18.2668 19.2034 18.2046 19.2164C18.1425 19.2294 18.0836 19.255 18.0316 19.2914ZM26.7188 15C26.7188 17.3177 26.0315 19.5834 24.7438 21.5106C23.4561 23.4377 21.6259 24.9397 19.4846 25.8267C17.3433 26.7137 14.987 26.9457 12.7138 26.4936C10.4406 26.0414 8.35249 24.9253 6.7136 23.2864C5.0747 21.6475 3.9586 19.5594 3.50643 17.2862C3.05426 15.013 3.28633 12.6568 4.17329 10.5154C5.06026 8.37411 6.56228 6.54389 8.48942 5.25622C10.4166 3.96854 12.6823 3.28125 15 3.28125C18.107 3.28466 21.0857 4.52041 23.2826 6.71736C25.4796 8.91431 26.7153 11.893 26.7188 15ZM25.7813 15C25.7786 12.1806 24.6729 9.47412 22.7006 7.45937C20.7284 5.44461 18.0461 4.2815 15.2273 4.21875C13.6242 6.33633 13.5938 8.41758 13.5938 8.4375C13.5938 8.81046 13.7419 9.16815 14.0056 9.43187C14.2694 9.69559 14.627 9.84375 15 9.84375C15.373 9.84375 15.7307 9.69559 15.9944 9.43187C16.2581 9.16815 16.4063 8.81046 16.4063 8.4375C16.4063 8.31318 16.4556 8.19395 16.5435 8.10604C16.6315 8.01814 16.7507 7.96875 16.875 7.96875C16.9993 7.96875 17.1186 8.01814 17.2065 8.10604C17.2944 8.19395 17.3438 8.31318 17.3438 8.4375C17.3438 9.0591 17.0968 9.65524 16.6573 10.0948C16.2177 10.5343 15.6216 10.7812 15 10.7812C14.3784 10.7812 13.7823 10.5343 13.3427 10.0948C12.9032 9.65524 12.6563 9.0591 12.6563 8.4375C12.6563 8.34609 12.675 6.40898 14.0625 4.26094C11.978 4.44289 9.99149 5.22749 8.34524 6.51905C6.69899 7.81061 5.46415 9.55331 4.79133 11.5346C4.1185 13.5159 4.03677 15.6502 4.55609 17.6772C5.07541 19.7041 6.17335 21.5362 7.716 22.9498C9.25865 24.3635 11.1793 25.2978 13.2438 25.6386C15.3083 25.9794 17.4274 25.7122 19.3426 24.8694C21.2577 24.0266 22.8863 22.6447 24.0296 20.8922C25.1729 19.1397 25.7815 17.0924 25.7813 15Z" fill="#000040"/>
</svg>
