<svg width="30" height="30" viewBox="0 0 30 30" fill="none" xmlns="http://www.w3.org/2000/svg">
<g clip-path="url(#clip0_3339_9621)">
<path d="M26.1751 22.125C26.1751 22.525 26.0876 22.95 25.8876 23.35C25.6876 23.75 25.4501 24.1375 25.1251 24.5C24.5751 25.1125 23.9626 25.55 23.2751 25.825C22.6001 26.1125 21.8626 26.25 21.0751 26.25C19.9251 26.25 18.7001 25.975 17.4001 25.425C16.1001 24.875 14.8126 24.1375 13.5251 23.2C12.2251 22.25 11.0001 21.2125 9.82509 20.05C8.66259 18.875 7.61261 17.65 6.68761 16.375C5.76261 15.0875 5.02509 13.8125 4.47509 12.5375C3.93759 11.25 3.6626 10.025 3.6626 8.8625C3.6626 8.1 3.80011 7.36251 4.06261 6.68751C4.33761 6.00001 4.76262 5.37501 5.36262 4.81251C6.08762 4.10001 6.87511 3.75 7.70011 3.75C8.01261 3.75 8.32513 3.8125 8.61263 3.95C8.90013 4.0875 9.16259 4.2875 9.36259 4.575L11.9751 8.25001C12.1751 8.53751 12.3251 8.78751 12.4251 9.03751C12.5251 9.27501 12.5876 9.5125 12.5876 9.725C12.5876 10 12.5126 10.2625 12.3501 10.525C12.2001 10.7875 11.9876 11.05 11.7251 11.325L10.8626 12.2125C10.7376 12.3375 10.6876 12.4875 10.6876 12.6625C10.6876 12.75 10.6876 12.825 10.7251 12.925C10.7626 13.0125 10.7876 13.0875 10.8126 13.15C11.0126 13.525 11.3626 14 11.8626 14.5875C12.3751 15.175 12.9126 15.7625 13.5001 16.3625C14.1126 16.9625 14.7001 17.5125 15.2876 18.0125C15.8751 18.5125 16.3626 18.85 16.7376 19.05C16.8001 19.075 16.8626 19.1125 16.9376 19.1375C17.0251 19.175 17.1126 19.1875 17.2251 19.1875C17.4126 19.1875 17.5626 19.125 17.6876 19L18.5501 18.1625C18.8376 17.875 19.1001 17.6625 19.3626 17.5375C19.6251 17.375 19.8751 17.3 20.1626 17.3C20.3751 17.3 20.6001 17.35 20.8501 17.45C21.1001 17.55 21.3626 17.7 21.6376 17.8875L25.3626 20.525C25.6501 20.725 25.8626 20.9625 25.9876 21.25C26.1001 21.5375 26.1626 21.8125 26.1626 22.125H26.1751Z" stroke="#000040" stroke-miterlimit="10"/>
</g>
<defs>
<clipPath id="clip0_3339_9621">
<rect width="30" height="30" fill="white"/>
</clipPath>
</defs>
</svg>
