<svg width="30" height="30" viewBox="0 0 30 30" fill="none" xmlns="http://www.w3.org/2000/svg">
<g clip-path="url(#clip0_3339_9980)">
<path d="M15.0126 18C16.6876 18 18.0501 16.6375 18.0501 14.9625C18.0501 13.2875 16.6876 11.925 15.0126 11.925C13.3376 11.925 11.9751 13.2875 11.9751 14.9625C11.9751 16.6375 13.3376 18 15.0126 18Z" stroke="#000040" stroke-miterlimit="10"/>
<path d="M17.6624 5.81249C17.8874 6.61249 18.4124 7.29999 19.1249 7.72499C19.8374 8.14999 20.6749 8.27499 21.4749 8.07499C22.0624 7.89999 22.6999 7.925 23.2749 8.1625C23.8499 8.4 24.3249 8.82499 24.6374 9.36249C24.9499 9.89999 25.0624 10.5375 24.9749 11.1625C24.8874 11.7875 24.5874 12.35 24.1374 12.775C23.5624 13.375 23.2374 14.1875 23.2374 15.025C23.2374 15.8625 23.5624 16.675 24.1374 17.275C24.5874 17.7 24.8749 18.275 24.9749 18.8875C25.0624 19.5125 24.9499 20.1375 24.6374 20.6875C24.3249 21.225 23.8499 21.65 23.2749 21.8875C22.6999 22.125 22.0749 22.15 21.4749 21.975C20.6749 21.775 19.8249 21.8875 19.0999 22.3125C18.3874 22.7375 17.8499 23.4125 17.6249 24.225C17.4624 24.8125 17.1124 25.325 16.6374 25.6875C16.1624 26.05 15.5749 26.25 14.9749 26.25C14.3749 26.25 13.7999 26.05 13.3124 25.6875C12.8374 25.325 12.4874 24.8125 12.3249 24.225C12.0999 23.4125 11.5624 22.7375 10.8499 22.3125C10.1374 21.9 9.28744 21.775 8.47494 21.975C7.88744 22.15 7.24987 22.1125 6.68737 21.875C6.11237 21.6375 5.63743 21.2125 5.33743 20.675C5.03743 20.1375 4.91242 19.5 5.01242 18.8875C5.09992 18.275 5.39988 17.7 5.83738 17.275C6.41238 16.675 6.73742 15.8625 6.73742 15.025C6.73742 14.1875 6.41238 13.375 5.83738 12.775C5.38738 12.35 5.09992 11.775 5.01242 11.1625C4.92492 10.55 5.03743 9.9125 5.33743 9.375C5.63743 8.8375 6.11237 8.41251 6.68737 8.17501C7.26237 7.93751 7.88744 7.89999 8.47494 8.07499C9.27494 8.27499 10.1374 8.15 10.8499 7.7375C11.5624 7.3125 12.0999 6.625 12.3249 5.825C12.4749 5.2375 12.8249 4.7125 13.2999 4.3375C13.7749 3.9625 14.3749 3.76251 14.9749 3.76251C15.5749 3.76251 16.1749 3.9625 16.6499 4.3375C17.1249 4.7125 17.4749 5.2375 17.6249 5.825L17.6624 5.81249Z" stroke="#000040" stroke-miterlimit="10" stroke-linecap="round"/>
</g>
<defs>
<clipPath id="clip0_3339_9980">
<rect width="30" height="30" fill="white"/>
</clipPath>
</defs>
</svg>
