<svg width="30" height="30" viewBox="0 0 30 30" fill="none" xmlns="http://www.w3.org/2000/svg">
<path fill-rule="evenodd" clip-rule="evenodd" d="M5 9.28572V20.7143C5 21.472 5.30102 22.1988 5.83684 22.7346C6.37266 23.2704 7.09938 23.5714 7.85714 23.5714H22.1429C22.9006 23.5714 23.6273 23.2704 24.1632 22.7346C24.699 22.1988 25 21.472 25 20.7143V9.28572C25 8.52795 24.699 7.80123 24.1632 7.26541C23.6273 6.72959 22.9006 6.42857 22.1429 6.42857H7.85714C7.09938 6.42857 6.37266 6.72959 5.83684 7.26541C5.30102 7.80123 5 8.52795 5 9.28572Z" stroke="#000040" stroke-linecap="round" stroke-linejoin="round"/>
<path d="M7.85693 10.7143L14.9998 15L22.1426 10.7143" stroke="#000040" stroke-linecap="round" stroke-linejoin="round"/>
</svg>
