<svg width="30" height="30" viewBox="0 0 30 30" fill="none" xmlns="http://www.w3.org/2000/svg">
<g clip-path="url(#clip0_3339_9629)">
<path d="M24.125 13.4875C18.0625 12.85 11.95 12.85 5.88752 13.4875C5.57502 13.525 5.26254 13.4875 4.96254 13.375C4.66254 13.2625 4.41252 13.0875 4.20002 12.85C4.00002 12.6125 3.85003 12.3375 3.78753 12.0375C3.71253 11.7375 3.72502 11.425 3.81252 11.125L4.85004 7.06249C5.08754 6.11249 5.65003 5.27499 6.43753 4.67499C7.22503 4.07499 8.18752 3.75 9.20002 3.75H20.8125C21.8 3.75 22.775 4.07499 23.5625 4.67499C24.35 5.27499 24.9 6.11249 25.15 7.06249L26.1876 11.125C26.2751 11.425 26.2875 11.725 26.2125 12.025C26.15 12.325 26.0126 12.6 25.8001 12.8375C25.6126 13.075 25.3375 13.25 25.05 13.3625C24.7625 13.475 24.45 13.5125 24.125 13.475V13.4875Z" stroke="black" stroke-width="1.5" stroke-miterlimit="10" stroke-linecap="round"/>
<path d="M23.9374 13.475V21.8875C23.9374 23.05 23.4624 24.15 22.6249 24.975C21.7874 25.7875 20.6499 26.25 19.4749 26.25H10.5374C9.3499 26.25 8.21241 25.7875 7.38741 24.975C6.54991 24.1625 6.0874 23.05 6.0874 21.9V13.4875" stroke="black" stroke-width="1.5" stroke-miterlimit="10" stroke-linecap="round"/>
<path d="M14.8375 18.775H15.175C15.975 18.775 16.75 19.0875 17.3125 19.6375C17.875 20.1875 18.2 20.9375 18.2 21.725V26.25H11.8125V21.725C11.8125 20.9375 12.125 20.1875 12.7 19.6375C13.2625 19.0875 14.0375 18.775 14.8375 18.775V18.775Z" stroke="black" stroke-width="1.5" stroke-miterlimit="10" stroke-linecap="round"/>
</g>
<defs>
<clipPath id="clip0_3339_9629">
<rect width="30" height="30" fill="white"/>
</clipPath>
</defs>
</svg>
