<svg width="24" height="28" viewBox="0 0 24 28" fill="none" xmlns="http://www.w3.org/2000/svg">
<path d="M9.875 25.25C10.0842 25.6306 10.3918 25.9479 10.7656 26.169C11.1394 26.39 11.5657 26.5067 12 26.5067C12.4343 26.5067 12.8606 26.39 13.2344 26.169C13.6082 25.9479 13.9158 25.6306 14.125 25.25M4.5 9C4.5 7.01088 5.29018 5.10322 6.6967 3.6967C8.10322 2.29018 10.0109 1.5 12 1.5C13.9891 1.5 15.8968 2.29018 17.3033 3.6967C18.7098 5.10322 19.5 7.01088 19.5 9C19.5 17.75 23.25 20.25 23.25 20.25H0.75C0.75 20.25 4.5 17.75 4.5 9Z" stroke="#000040" stroke-width="1.5" stroke-linecap="round" stroke-linejoin="round"/>
</svg>
