<svg width="30" height="30" viewBox="0 0 30 30" fill="none" xmlns="http://www.w3.org/2000/svg">
<path d="M18.4232 7.79041C18.2477 7.0071 18.4835 6.12896 19.1203 5.49218C20.0825 4.53 21.5958 4.48324 22.5003 5.38775C22.846 5.73348 23.0527 6.16815 23.1225 6.62699C23.1476 6.79173 23.2799 6.92412 23.4447 6.94917C23.9035 7.01894 24.3382 7.22569 24.6839 7.57142C25.5884 8.47593 25.5417 9.98918 24.5795 10.9514C23.9427 11.5881 23.0646 11.824 22.2813 11.6485C21.6076 11.4976 20.8038 11.4515 20.3157 11.9397L16.3214 15.9339L15.9339 16.3214L11.9397 20.3157C11.4515 20.8038 11.4975 21.6076 11.6484 22.2813C11.8239 23.0646 11.5881 23.9427 10.9513 24.5795C9.98914 25.5417 8.47589 25.5885 7.57138 24.6839C7.22565 24.3382 7.0189 23.9035 6.94913 23.4447C6.92408 23.28 6.79169 23.1476 6.62696 23.1225C6.16811 23.0528 5.73344 22.846 5.38771 22.5003C4.4832 21.5958 4.52996 20.0825 5.49215 19.1203C6.12892 18.4835 7.00706 18.2477 7.79037 18.4232C8.46403 18.5741 9.26782 18.6202 9.75598 18.132L13.7502 14.1377L14.1377 13.7503L18.132 9.75602C18.6201 9.26786 18.5741 8.46407 18.4232 7.79041Z" stroke="#22202A" stroke-linecap="square"/>
</svg>
