<svg width="30" height="30" viewBox="0 0 30 30" fill="none" xmlns="http://www.w3.org/2000/svg">
<path d="M10.625 17.5H11.064C11.1744 17.5 11.2717 17.4276 11.3034 17.3218L12.9434 11.8553C12.9888 11.7038 13.2073 11.7166 13.2348 11.8723L14.8776 21.1814C14.9057 21.3408 15.1316 21.3487 15.1708 21.1917L16.2027 17.0644C16.2305 16.9531 16.3305 16.875 16.4452 16.875H19.375" stroke="#22202A" stroke-linecap="round"/>
<path d="M11.25 5.3125V5.3125C11.25 6.17544 11.9496 6.875 12.8125 6.875H17.1875C18.0504 6.875 18.75 6.17544 18.75 5.3125V5.3125M11.25 5.3125V5.3125C11.25 4.44956 11.9496 3.75 12.8125 3.75H17.1875C18.0504 3.75 18.75 4.44956 18.75 5.3125V5.3125M11.25 5.3125V5.3125C10.2006 5.3125 9.67588 5.3125 9.26989 5.50452C8.8516 5.70236 8.51486 6.0391 8.31702 6.45739C8.125 6.86338 8.125 7.38809 8.125 8.4375V20.625C8.125 22.982 8.125 24.1605 8.85723 24.8928C9.58947 25.625 10.768 25.625 13.125 25.625H16.875C19.232 25.625 20.4105 25.625 21.1428 24.8928C21.875 24.1605 21.875 22.982 21.875 20.625V8.4375C21.875 7.38809 21.875 6.86338 21.683 6.45739C21.4851 6.0391 21.1484 5.70236 20.7301 5.50452C20.3241 5.3125 19.7994 5.3125 18.75 5.3125V5.3125" stroke="#22202A"/>
</svg>
