<svg width="30" height="30" viewBox="0 0 30 30" fill="none" xmlns="http://www.w3.org/2000/svg">
<path d="M6.875 23.125C6.875 22.8927 6.875 22.7765 6.89421 22.6799C6.97312 22.2832 7.28322 21.9731 7.67991 21.8942C7.77651 21.875 7.89267 21.875 8.125 21.875H21.875C22.1073 21.875 22.2235 21.875 22.3201 21.8942C22.7168 21.9731 23.0269 22.2832 23.1058 22.6799C23.125 22.7765 23.125 22.8927 23.125 23.125V23.125C23.125 23.2412 23.125 23.2992 23.1154 23.3475C23.0759 23.5459 22.9209 23.7009 22.7225 23.7404C22.6742 23.75 22.6162 23.75 22.5 23.75H7.5C7.38384 23.75 7.32575 23.75 7.27745 23.7404C7.07911 23.7009 6.92406 23.5459 6.88461 23.3475C6.875 23.2992 6.875 23.2412 6.875 23.125V23.125Z" stroke="#22202A"/>
<path d="M7.42383 15C7.42383 14.5357 7.42383 14.3036 7.43484 14.1075C7.6346 10.5504 10.4742 7.71078 14.0313 7.51101C14.2274 7.5 14.4596 7.5 14.9238 7.5V7.5C15.3881 7.5 15.6202 7.5 15.8163 7.51101C19.3734 7.71078 22.2131 10.5504 22.4128 14.1075C22.4238 14.3036 22.4238 14.5357 22.4238 15V18.4375C22.4238 18.9622 22.4238 19.2246 22.3278 19.4276C22.2289 19.6367 22.0605 19.8051 21.8514 19.904C21.6484 20 21.386 20 20.8613 20H8.98633C8.46162 20 8.19927 20 7.99627 19.904C7.78713 19.8051 7.61876 19.6367 7.51984 19.4276C7.42383 19.2246 7.42383 18.9622 7.42383 18.4375V15Z" stroke="#22202A"/>
<path d="M13.8876 11.7323C13.8281 11.8758 13.8281 12.0579 13.8281 12.4219V13.1656C13.8281 13.1833 13.8281 13.1921 13.8226 13.1976C13.8171 13.2031 13.8083 13.2031 13.7906 13.2031H13.0469C12.6829 13.2031 12.5008 13.2031 12.3573 13.2626C12.1659 13.3419 12.0138 13.494 11.9345 13.6854C11.875 13.829 11.875 14.011 11.875 14.375C11.875 14.739 11.875 14.921 11.9345 15.0646C12.0138 15.256 12.1659 15.4081 12.3573 15.4874C12.5008 15.5469 12.6829 15.5469 13.0469 15.5469H13.7906C13.8083 15.5469 13.8171 15.5469 13.8226 15.5524C13.8281 15.5579 13.8281 15.5667 13.8281 15.5844V16.3281C13.8281 16.6921 13.8281 16.8742 13.8876 17.0177C13.9669 17.2091 14.119 17.3612 14.3104 17.4405C14.454 17.5 14.636 17.5 15 17.5C15.364 17.5 15.546 17.5 15.6896 17.4405C15.881 17.3612 16.0331 17.2091 16.1124 17.0177C16.1719 16.8742 16.1719 16.6921 16.1719 16.3281V15.5844C16.1719 15.5667 16.1719 15.5579 16.1774 15.5524C16.1829 15.5469 16.1917 15.5469 16.2094 15.5469H16.9531C17.3171 15.5469 17.4992 15.5469 17.6427 15.4874C17.8341 15.4081 17.9862 15.256 18.0655 15.0646C18.125 14.921 18.125 14.739 18.125 14.375C18.125 14.011 18.125 13.829 18.0655 13.6854C17.9862 13.494 17.8342 13.3419 17.6427 13.2626C17.4992 13.2031 17.3171 13.2031 16.9531 13.2031H16.2094C16.1917 13.2031 16.1829 13.2031 16.1774 13.1976C16.1719 13.1921 16.1719 13.1833 16.1719 13.1656V12.4219C16.1719 12.0579 16.1719 11.8758 16.1124 11.7323C16.0331 11.5409 15.881 11.3888 15.6896 11.3095C15.546 11.25 15.364 11.25 15 11.25C14.636 11.25 14.454 11.25 14.3104 11.3095C14.119 11.3888 13.9669 11.5409 13.8876 11.7323Z" stroke="#22202A"/>
<path d="M14.9873 4.375H14.9998V5H14.9873V4.375Z" stroke="#22202A" stroke-linejoin="round"/>
<path d="M4.375 15.0125L4.375 15L5 15L5 15.0125L4.375 15.0125Z" stroke="#22202A" stroke-linejoin="round"/>
<path d="M25 15.0125L25 15L25.625 15L25.625 15.0125L25 15.0125Z" stroke="#22202A" stroke-linejoin="round"/>
<path d="M22.5 7.5L22.5088 7.50884L22.0669 7.95078L22.0581 7.94194L22.5 7.5Z" stroke="#22202A" stroke-linejoin="round"/>
<path d="M7.5 7.5L7.49116 7.50884L7.9331 7.95078L7.94194 7.94194L7.5 7.5Z" stroke="#22202A" stroke-linejoin="round"/>
</svg>
