<svg width="30" height="30" viewBox="0 0 30 30" fill="none" xmlns="http://www.w3.org/2000/svg">
<path d="M7.07491 13.6207C6.51582 10.32 6.93396 5.71343 10.3374 4.02065C11.7929 3.36232 13.3829 3.05551 14.9789 3.12499C19.8314 3.33626 24.6398 7.12618 21.9499 12.3207L21.8628 12.5822M11.8749 23.75C12.4564 24.5882 12.7978 25.5694 12.8624 26.5875M19.4341 13.9375C19.3527 13.6685 19.3527 13.3815 19.4341 13.1125C19.5382 12.8784 19.702 12.6759 19.9091 12.525C20.0978 12.3845 20.3155 12.288 20.5464 12.2427C20.7772 12.1974 21.0153 12.2044 21.2431 12.2631C21.4709 12.3219 21.6827 12.4309 21.8628 12.5822M21.8628 12.5822C22.0429 12.7335 22.1869 12.9233 22.2841 13.1375C22.4265 13.4693 22.4999 13.8265 22.4999 14.1875C22.4999 14.5485 22.4265 14.9058 22.2841 15.2375C22.1341 15.5375 21.9091 15.775 21.7341 16.0625C21.4466 16.5375 21.3466 17.1125 21.0841 17.6125C21.0001 17.8 20.8605 17.9572 20.6841 18.0625C20.5335 18.1385 20.3615 18.1605 20.1966 18.125M20.1966 18.125C19.9813 18.0847 19.7852 17.9748 19.6384 17.8122C19.4916 17.6496 19.4023 17.4433 19.3841 17.225M20.1966 18.125C20.1966 18.125 20.0749 18.3379 20.0749 18.6625C20.0702 19.8393 20.487 20.9789 21.2499 21.875" stroke="#000040" stroke-miterlimit="10" stroke-linecap="round"/>
<path d="M17.8001 13.6375C17.1083 14.6091 16.0729 15.3447 14.916 15.647M18.2626 18.4375C17.8881 19.0409 16.9879 20 16.203 20M14.916 15.647C14.7215 15.3976 14.4246 15.2215 14.0376 15.1625C12.8751 14.85 11.6626 15.025 10.4876 14.85C9.37502 14.6843 9.10001 13.75 8.12502 13.75C7.50002 13.75 6.34057 14.1398 6.31256 14.45C5.94088 17.3551 6.31516 22.5813 9.73756 23.75C10.8009 24.1131 11.8959 23.7303 12.8626 23.25C14.0525 22.7273 16.1622 21.6806 16.2501 20.1625C16.2481 20.1059 16.2312 20.0517 16.203 20M14.916 15.647C15.1787 15.9837 15.2544 16.4541 15.1126 16.95C14.9822 17.6248 14.5193 19.0104 15.3376 19.4C15.5696 19.516 16.0508 19.721 16.203 20" stroke="#000040" stroke-miterlimit="10" stroke-linecap="round"/>
<path d="M6.71241 16.05C8.6797 17.0917 10.958 17.3849 13.1249 16.875" stroke="#000040" stroke-miterlimit="10" stroke-linecap="round"/>
<path d="M6.875 18.125C8.84229 19.1667 11.1206 19.4599 13.2875 18.95" stroke="#000040" stroke-miterlimit="10" stroke-linecap="round"/>
<path d="M7.3374 20.6662C8.72945 21.4034 10.3416 21.6108 11.8749 21.25" stroke="#000040" stroke-miterlimit="10" stroke-linecap="round"/>
</svg>
