<svg width="30" height="30" viewBox="0 0 30 30" fill="none" xmlns="http://www.w3.org/2000/svg">
<path d="M10.0742 5.17478C10.0252 6.29559 10.3938 7.078 11.261 8.36501M10.0742 5.17478C12.4048 2.35034 17.5949 2.35034 19.9256 5.17478M10.0742 5.17478C6.49912 9.19261 9.98303 13.2883 12.5346 16.5114M11.261 8.36501C12.4488 10.1278 13.6839 11.8685 14.9999 13.538M11.261 8.36501C13.8696 6.54364 16.1302 6.54364 18.7387 8.36501M19.9256 5.17478C19.9745 6.29559 19.6059 7.078 18.7387 8.36501M19.9256 5.17478C23.5006 9.19261 20.0167 13.2883 17.4652 16.5114M18.7387 8.36501C17.551 10.1278 16.3158 11.8685 14.9999 13.538M14.9999 13.538C14.1949 14.5594 13.3731 15.5422 12.5346 16.5114M12.5346 16.5114C11.3872 17.8378 8.18021 21.4544 7.7481 21.9416C7.71861 21.9748 7.71551 22.0213 7.73917 22.0589C7.99841 22.471 9.46352 24.7989 9.99987 25.625C10.0359 25.6827 12.4687 22.7364 14.9999 19.5958M14.9999 19.5958C17.531 22.7364 19.9638 25.6827 19.9999 25.625C20.4376 24.9509 21.9936 22.4826 22.2608 22.0585C22.2845 22.0209 22.2808 21.9746 22.2514 21.9413C21.8034 21.4355 18.3946 17.5858 17.4652 16.5114M14.9999 19.5958C15.8387 18.5549 16.6884 17.4927 17.4652 16.5114" stroke="#22202A" stroke-miterlimit="10"/>
</svg>
