<svg width="30" height="30" viewBox="0 0 30 30" fill="none" xmlns="http://www.w3.org/2000/svg">
<path d="M7.5 6.375C7.5 5.43219 7.5 4.96079 7.79289 4.66789C8.08579 4.375 8.55719 4.375 9.5 4.375H20.5C21.4428 4.375 21.9142 4.375 22.2071 4.66789C22.5 4.96079 22.5 5.43219 22.5 6.375V23.625C22.5 24.5678 22.5 25.0392 22.2071 25.3321C21.9142 25.625 21.4428 25.625 20.5 25.625H9.5C8.55719 25.625 8.08579 25.625 7.79289 25.3321C7.5 25.0392 7.5 24.5678 7.5 23.625V6.375Z" stroke="#22202A"/>
<circle cx="11.25" cy="8.75" r="1.25" stroke="#22202A"/>
<circle cx="18.75" cy="8.75" r="1.25" stroke="#22202A"/>
<circle cx="11.25" cy="15" r="1.25" stroke="#22202A"/>
<circle cx="18.75" cy="15" r="1.25" stroke="#22202A"/>
<circle cx="11.25" cy="21.25" r="1.25" stroke="#22202A"/>
<circle cx="18.75" cy="21.25" r="1.25" stroke="#22202A"/>
<path d="M15 7.5V22.5" stroke="#22202A" stroke-linecap="round"/>
</svg>
