<svg width="30" height="30" viewBox="0 0 30 30" fill="none" xmlns="http://www.w3.org/2000/svg">
<path d="M11.9638 20.6113C11.4346 21.7623 11.2626 23.0456 10.8128 24.2231C10.5513 25.2022 9.64577 24.9468 9.05316 24.3951C5.44652 20.3761 2.71447 10.6332 6.98926 6.11106C9.17444 3.67955 11.2501 7.08653 15.0001 7.08653C18.7501 7.08653 20.8532 3.70202 23.0242 6.11106C27.3008 10.6679 24.4904 20.3723 20.8677 24.3951C20.3098 24.9975 19.3469 25.1761 19.0948 24.2231C18.645 23.0456 18.4862 21.7623 17.957 20.6113C16.7792 17.7761 13.1773 17.8874 11.9638 20.6113Z" stroke="#22202A" stroke-miterlimit="10"/>
<path d="M21.25 7.5C22.5 8.125 22.5 9.375 22.5 10" stroke="#22202A" stroke-linecap="round"/>
</svg>
